<svg width="73" height="56" viewBox="0 0 73 56" fill="none" xmlns="http://www.w3.org/2000/svg">
<path d="M28.5582 19.0216C28.7788 22.3289 28.8884 23.9837 29.9664 24.9906C31.0443 26 32.7029 26 36.0176 26H36.9821C40.2969 26 41.9542 26 43.0334 24.9906C44.1113 23.9825 44.221 22.3289 44.4415 19.0216L44.869 12.6239C45.0347 10.1316 45.1182 8.88672 44.3792 8.09792C43.6403 7.30786 42.3916 7.30786 39.8956 7.30786H33.1041C30.6081 7.30786 29.3595 7.30786 28.6205 8.09792C27.8816 8.88672 27.9651 10.1329 28.1308 12.6239L28.2031 13.7043" stroke="#424242" stroke-width="2" stroke-linecap="round"/>
<path d="M36.4998 21.9505C36.7477 21.9505 36.9854 21.852 37.1607 21.6768C37.3359 21.5015 37.4344 21.2638 37.4344 21.0159C37.4344 20.768 37.3359 20.5303 37.1607 20.355C36.9854 20.1798 36.7477 20.0813 36.4998 20.0813V21.9505ZM40.8613 20.0813C40.6134 20.0813 40.3757 20.1798 40.2004 20.355C40.0252 20.5303 39.9267 20.768 39.9267 21.0159C39.9267 21.2638 40.0252 21.5015 40.2004 21.6768C40.3757 21.852 40.6134 21.9505 40.8613 21.9505V20.0813ZM36.4998 20.0813H29.0229V21.9505H36.4998V20.0813ZM43.9767 20.0813H40.8613V21.9505H43.9767V20.0813Z" fill="#424242"/>
<path d="M31.5769 4.8917L32.0891 4.17517C32.1564 4.08094 32.2046 3.97436 32.2307 3.86152C32.2568 3.74868 32.2604 3.6318 32.2413 3.51756C32.2222 3.40333 32.1808 3.29397 32.1194 3.19577C32.058 3.09756 31.9778 3.01242 31.8835 2.94523C31.6933 2.80954 31.5648 2.60387 31.5262 2.37346C31.4877 2.14304 31.5422 1.90674 31.6779 1.71653L32.1888 1M41.5473 4.8917L42.0582 4.17517C42.1256 4.08094 42.1737 3.97436 42.1998 3.86152C42.2259 3.74868 42.2295 3.6318 42.2105 3.51756C42.1914 3.40333 42.1499 3.29397 42.0885 3.19577C42.0271 3.09756 41.9469 3.01242 41.8526 2.94523C41.6624 2.80954 41.5339 2.60387 41.4954 2.37346C41.4568 2.14304 41.5114 1.90674 41.647 1.71653L42.1579 1M36.5627 4.8917L37.0737 4.17517C37.141 4.08094 37.1891 3.97436 37.2152 3.86152C37.2414 3.74868 37.245 3.6318 37.2259 3.51756C37.2068 3.40333 37.1654 3.29397 37.1039 3.19577C37.0425 3.09756 36.9624 3.01242 36.868 2.94523C36.6779 2.80954 36.5494 2.60387 36.5108 2.37346C36.4723 2.14304 36.5268 1.90674 36.6624 1.71653L37.1733 1" stroke="#424242" stroke-width="2" stroke-linecap="round"/>
<path d="M5.056 52.16C4.48 52.16 3.95733 52.0427 3.488 51.808C3.02933 51.5627 2.66133 51.2267 2.384 50.8C2.10667 50.3733 1.952 49.888 1.92 49.344V47.056C1.952 46.5013 2.10667 46.016 2.384 45.6C2.672 45.1733 3.04533 44.8427 3.504 44.608C3.97333 44.3627 4.49067 44.24 5.056 44.24C5.74933 44.24 6.37333 44.416 6.928 44.768C7.49333 45.12 7.936 45.5947 8.256 46.192C8.576 46.7893 8.736 47.4613 8.736 48.208C8.736 48.9547 8.576 49.6267 8.256 50.224C7.936 50.8213 7.49333 51.296 6.928 51.648C6.37333 51.9893 5.74933 52.16 5.056 52.16ZM4.816 50.8C5.296 50.8 5.71733 50.688 6.08 50.464C6.44267 50.24 6.73067 49.936 6.944 49.552C7.15733 49.1573 7.264 48.704 7.264 48.192C7.264 47.6907 7.15733 47.2427 6.944 46.848C6.73067 46.4533 6.44267 46.1493 6.08 45.936C5.71733 45.712 5.30133 45.6 4.832 45.6C4.352 45.6 3.93067 45.712 3.568 45.936C3.20533 46.1493 2.92267 46.4533 2.72 46.848C2.51733 47.2427 2.416 47.696 2.416 48.208C2.416 48.7093 2.512 49.1573 2.704 49.552C2.90667 49.936 3.18933 50.24 3.552 50.464C3.92533 50.688 4.34667 50.8 4.816 50.8ZM1.056 52V40.576H2.496V46.256L2.224 48.096L2.496 49.952V52H1.056ZM10.8485 52V44.4H12.2885V52H10.8485ZM12.2885 47.664L11.7445 47.424C11.7445 46.4533 11.9685 45.68 12.4165 45.104C12.8645 44.528 13.5098 44.24 14.3525 44.24C14.7365 44.24 15.0832 44.3093 15.3925 44.448C15.7018 44.576 15.9898 44.7947 16.2565 45.104L15.3125 46.08C15.1525 45.9093 14.9765 45.7867 14.7845 45.712C14.5925 45.6373 14.3685 45.6 14.1125 45.6C13.5792 45.6 13.1418 45.7707 12.8005 46.112C12.4592 46.4533 12.2885 46.9707 12.2885 47.664ZM21.0204 52.16C20.263 52.16 19.5804 51.9893 18.9724 51.648C18.3644 51.296 17.8844 50.8213 17.5324 50.224C17.1804 49.6267 17.0044 48.9493 17.0044 48.192C17.0044 47.4453 17.175 46.7733 17.5164 46.176C17.8684 45.5787 18.3377 45.1093 18.9244 44.768C19.5217 44.416 20.1884 44.24 20.9244 44.24C21.6284 44.24 22.247 44.4 22.7804 44.72C23.3244 45.04 23.7457 45.4827 24.0444 46.048C24.3537 46.6133 24.5084 47.2533 24.5084 47.968C24.5084 48.0747 24.503 48.192 24.4924 48.32C24.4817 48.4373 24.4604 48.576 24.4284 48.736H18.0124V47.536H23.6604L23.1324 48C23.1324 47.488 23.0417 47.056 22.8604 46.704C22.679 46.3413 22.423 46.064 22.0924 45.872C21.7617 45.6693 21.3617 45.568 20.8924 45.568C20.4017 45.568 19.9697 45.6747 19.5964 45.888C19.223 46.1013 18.935 46.4 18.7324 46.784C18.5297 47.168 18.4284 47.6213 18.4284 48.144C18.4284 48.6773 18.535 49.1467 18.7484 49.552C18.9617 49.9467 19.2657 50.256 19.6604 50.48C20.055 50.6933 20.5084 50.8 21.0204 50.8C21.447 50.8 21.8364 50.7253 22.1884 50.576C22.551 50.4267 22.8604 50.2027 23.1164 49.904L24.0444 50.848C23.6817 51.2747 23.2337 51.6 22.7004 51.824C22.1777 52.048 21.6177 52.16 21.0204 52.16ZM29.7905 52.16C29.0972 52.16 28.4678 51.9893 27.9025 51.648C27.3372 51.296 26.8892 50.8213 26.5585 50.224C26.2385 49.6267 26.0785 48.9547 26.0785 48.208C26.0785 47.4613 26.2385 46.7893 26.5585 46.192C26.8892 45.5947 27.3318 45.12 27.8865 44.768C28.4518 44.416 29.0865 44.24 29.7905 44.24C30.3665 44.24 30.8785 44.3627 31.3265 44.608C31.7852 44.8427 32.1532 45.1733 32.4305 45.6C32.7078 46.016 32.8625 46.5013 32.8945 47.056V49.344C32.8625 49.888 32.7078 50.3733 32.4305 50.8C32.1638 51.2267 31.8012 51.5627 31.3425 51.808C30.8945 52.0427 30.3772 52.16 29.7905 52.16ZM30.0305 50.8C30.7452 50.8 31.3212 50.56 31.7585 50.08C32.1958 49.5893 32.4145 48.9653 32.4145 48.208C32.4145 47.6853 32.3132 47.232 32.1105 46.848C31.9185 46.4533 31.6412 46.1493 31.2785 45.936C30.9158 45.712 30.4945 45.6 30.0145 45.6C29.5345 45.6 29.1078 45.712 28.7345 45.936C28.3718 46.16 28.0838 46.4693 27.8705 46.864C27.6678 47.248 27.5665 47.6907 27.5665 48.192C27.5665 48.704 27.6678 49.1573 27.8705 49.552C28.0838 49.936 28.3772 50.24 28.7505 50.464C29.1238 50.688 29.5505 50.8 30.0305 50.8ZM32.3185 52V49.952L32.5905 48.096L32.3185 46.256V44.4H33.7745V52H32.3185ZM41.215 52L37.663 48.112L41.183 44.4H42.927L39.007 48.496L39.071 47.664L43.071 52H41.215ZM36.351 52V40.576H37.791V52H36.351ZM45.3409 52V43.264C45.3409 42.6987 45.4635 42.208 45.7089 41.792C45.9542 41.3653 46.2902 41.0293 46.7169 40.784C47.1542 40.5387 47.6609 40.416 48.2369 40.416C48.6742 40.416 49.0529 40.4907 49.3729 40.64C49.6929 40.7893 49.9862 41.008 50.2529 41.296L49.3089 42.224C49.1702 42.0747 49.0155 41.9627 48.8449 41.888C48.6742 41.8027 48.4662 41.76 48.2209 41.76C47.7622 41.76 47.4049 41.8933 47.1489 42.16C46.9035 42.4267 46.7809 42.7947 46.7809 43.264V52H45.3409ZM43.4689 45.712V44.4H49.1969V45.712H43.4689ZM53.918 52.16C53.2247 52.16 52.5953 51.9893 52.03 51.648C51.4647 51.296 51.0167 50.8213 50.686 50.224C50.366 49.6267 50.206 48.9547 50.206 48.208C50.206 47.4613 50.366 46.7893 50.686 46.192C51.0167 45.5947 51.4593 45.12 52.014 44.768C52.5793 44.416 53.214 44.24 53.918 44.24C54.494 44.24 55.006 44.3627 55.454 44.608C55.9127 44.8427 56.2807 45.1733 56.558 45.6C56.8353 46.016 56.99 46.5013 57.022 47.056V49.344C56.99 49.888 56.8353 50.3733 56.558 50.8C56.2913 51.2267 55.9287 51.5627 55.47 51.808C55.022 52.0427 54.5047 52.16 53.918 52.16ZM54.158 50.8C54.8727 50.8 55.4487 50.56 55.886 50.08C56.3233 49.5893 56.542 48.9653 56.542 48.208C56.542 47.6853 56.4407 47.232 56.238 46.848C56.046 46.4533 55.7687 46.1493 55.406 45.936C55.0433 45.712 54.622 45.6 54.142 45.6C53.662 45.6 53.2353 45.712 52.862 45.936C52.4993 46.16 52.2113 46.4693 51.998 46.864C51.7953 47.248 51.694 47.6907 51.694 48.192C51.694 48.704 51.7953 49.1573 51.998 49.552C52.2113 49.936 52.5047 50.24 52.878 50.464C53.2513 50.688 53.678 50.8 54.158 50.8ZM56.446 52V49.952L56.718 48.096L56.446 46.256V44.4H57.902V52H56.446ZM62.8945 52.16C62.4678 52.16 62.0625 52.1067 61.6785 52C61.3052 51.8827 60.9585 51.7227 60.6385 51.52C60.3185 51.3067 60.0412 51.056 59.8065 50.768L60.7345 49.84C61.0118 50.1813 61.3318 50.4373 61.6945 50.608C62.0572 50.768 62.4625 50.848 62.9105 50.848C63.3585 50.848 63.7052 50.7733 63.9505 50.624C64.1958 50.464 64.3185 50.2453 64.3185 49.968C64.3185 49.6907 64.2172 49.4773 64.0145 49.328C63.8225 49.168 63.5718 49.04 63.2625 48.944C62.9532 48.8373 62.6225 48.736 62.2705 48.64C61.9292 48.5333 61.6038 48.4 61.2945 48.24C60.9852 48.08 60.7292 47.8613 60.5265 47.584C60.3345 47.3067 60.2385 46.9387 60.2385 46.48C60.2385 46.0213 60.3505 45.6267 60.5745 45.296C60.7985 44.9547 61.1078 44.6933 61.5025 44.512C61.9078 44.3307 62.3932 44.24 62.9585 44.24C63.5558 44.24 64.0838 44.3467 64.5425 44.56C65.0118 44.7627 65.3958 45.072 65.6945 45.488L64.7665 46.416C64.5532 46.1387 64.2865 45.9253 63.9665 45.776C63.6572 45.6267 63.3052 45.552 62.9105 45.552C62.4945 45.552 62.1745 45.6267 61.9505 45.776C61.7372 45.9147 61.6305 46.112 61.6305 46.368C61.6305 46.624 61.7265 46.8213 61.9185 46.96C62.1105 47.0987 62.3612 47.216 62.6705 47.312C62.9905 47.408 63.3212 47.5093 63.6625 47.616C64.0038 47.712 64.3292 47.8453 64.6385 48.016C64.9478 48.1867 65.1985 48.416 65.3905 48.704C65.5932 48.992 65.6945 49.3707 65.6945 49.84C65.6945 50.5547 65.4385 51.12 64.9265 51.536C64.4252 51.952 63.7478 52.16 62.8945 52.16ZM68.9546 52V41.216H70.3946V52H68.9546ZM67.0826 45.712V44.4H72.2666V45.712H67.0826Z" fill="#424242"/>
</svg>
