<svg width="20" height="18" viewBox="0 0 20 18" fill="none" xmlns="http://www.w3.org/2000/svg">
<path d="M9.86457 3.6026L9.37408 4.07493C9.43763 4.14086 9.51381 4.19331 9.59809 4.22913C9.68237 4.26495 9.773 4.28341 9.86457 4.28341C9.95614 4.28341 10.0468 4.26495 10.1311 4.22913C10.2153 4.19331 10.2915 4.14086 10.3551 4.07493L9.86457 3.6026ZM5.32386 13.5215C5.18414 13.4066 5.00449 13.3519 4.82444 13.3694C4.64439 13.387 4.47868 13.4753 4.36377 13.615C4.24886 13.7548 4.19416 13.9344 4.2117 14.1145C4.22925 14.2945 4.3176 14.4602 4.45732 14.5751L5.32386 13.5215ZM1.09199 10.7883C1.13493 10.8668 1.19291 10.9361 1.26262 10.9922C1.33233 11.0483 1.4124 11.0901 1.49826 11.1152C1.58413 11.1403 1.6741 11.1483 1.76305 11.1387C1.85199 11.129 1.93817 11.102 2.01666 11.059C2.09515 11.0161 2.16441 10.9581 2.22049 10.8884C2.27657 10.8187 2.31837 10.7386 2.34351 10.6527C2.36864 10.5669 2.37662 10.4769 2.36698 10.388C2.35734 10.299 2.33028 10.2128 2.28734 10.1344L1.09199 10.7883ZM1.46258 6.90617C1.46258 4.95328 2.5662 3.31466 4.0731 2.62525C5.53732 1.95581 7.50475 2.13294 9.37408 4.07493L10.3551 3.13118C8.13876 0.826767 5.56275 0.446179 3.50631 1.38629C1.49528 2.30642 0.100098 4.4428 0.100098 6.90617H1.46258ZM6.68272 16.3191C7.14869 16.6861 7.64826 17.0767 8.1542 17.3728C8.66013 17.668 9.23783 17.9087 9.86457 17.9087V16.5462C9.58299 16.5462 9.25236 16.4372 8.8418 16.1965C8.43033 15.9567 8.00433 15.6261 7.52655 15.2491L6.68272 16.3191ZM13.0464 16.3191C14.3417 15.2973 15.9985 14.1273 17.2974 12.664C18.6208 11.1744 19.629 9.32776 19.629 6.90617H18.2666C18.2666 8.90176 17.4491 10.4405 16.2792 11.7593C15.0847 13.1037 13.5796 14.1637 12.2026 15.2491L13.0464 16.3191ZM19.629 6.90617C19.629 4.4428 18.2348 2.30642 16.2228 1.38629C14.1664 0.446179 11.5922 0.826767 9.37408 3.13027L10.3551 4.07493C12.2244 2.13384 14.1918 1.95581 15.656 2.62525C17.1629 3.31466 18.2666 4.95237 18.2666 6.90617H19.629ZM12.2026 15.2491C11.7248 15.6261 11.2988 15.9567 10.8873 16.1965C10.4768 16.4363 10.1462 16.5462 9.86457 16.5462V17.9087C10.4913 17.9087 11.069 17.668 11.5749 17.3728C12.0818 17.0767 12.5805 16.6861 13.0464 16.3191L12.2026 15.2491ZM7.52655 15.2491C6.80352 14.6796 6.06869 14.1346 5.32386 13.5215L4.45732 14.5751C5.21123 15.1955 6.00874 15.7878 6.68272 16.3191L7.52746 15.2491H7.52655ZM2.28734 10.1353C1.74017 9.14739 1.45616 8.03544 1.46258 6.90617H0.100098C0.100098 8.39401 0.481593 9.67293 1.09199 10.7883L2.28734 10.1344V10.1353Z" fill="#424242"/>
<path d="M9.86456 3.60266L8.50208 6.32763L11.6812 8.59844L8.95624 11.7776L10.7729 13.5942L9.86456 17.2275" stroke="#424242" stroke-width="1.5" stroke-linecap="round" stroke-linejoin="round"/>
</svg>
