<svg width="24" height="18" viewBox="0 0 24 18" fill="none" xmlns="http://www.w3.org/2000/svg">
<path d="M18.1171 3.77815L19.049 6.57395H14.6018V2.32501H16.1016C16.5476 2.32505 16.9822 2.46542 17.3439 2.72623C17.7056 2.98703 17.9761 3.35505 18.1171 3.77815ZM19.5206 7.99027L19.5249 8.00443L19.9016 8.09791L20.0744 8.1404C20.5342 8.25541 20.9423 8.52086 21.2338 8.89452C21.5254 9.26819 21.6836 9.72861 21.6833 10.2026V12.5933C21.6833 12.8199 21.6125 13.0324 21.4893 13.2051C21.2358 12.4711 20.7481 11.8407 20.1011 11.4111C19.4541 10.9815 18.6839 10.7765 17.909 10.8277C17.1341 10.8789 16.3975 11.1835 15.8127 11.6944C15.2279 12.2054 14.8273 12.8945 14.6726 13.6555H8.86568C8.71099 12.8945 8.31039 12.2054 7.72558 11.6944C7.14077 11.1835 6.40418 10.8789 5.62927 10.8277C4.85436 10.7765 4.08411 10.9815 3.43715 11.4111C2.7902 11.8407 2.30242 12.4711 2.04895 13.2051C1.92247 13.0262 1.85467 12.8124 1.85491 12.5933V10.8753C1.85475 10.407 2.00936 9.95167 2.2947 9.58027C2.58004 9.20887 2.98011 8.94217 3.43269 8.82165L6.55142 7.99027H19.5206ZM7.70147 6.57395L9.45486 3.4184C9.63863 3.08735 9.90753 2.81142 10.2337 2.61919C10.5599 2.42695 10.9316 2.32538 11.3102 2.32501H13.1854V6.57395H7.70147ZM0.438599 12.5933C0.438599 13.5946 1.03345 14.4572 1.88749 14.8481C2.00091 15.6767 2.404 16.4385 3.02534 16.9983C3.64667 17.5582 4.44614 17.8801 5.28208 17.9069C6.11802 17.9337 6.93647 17.6637 7.5924 17.1448C8.24833 16.6259 8.6994 15.8915 8.86568 15.0718H14.6726C14.8389 15.8915 15.2899 16.6259 15.9458 17.1448C16.6018 17.6637 17.4202 17.9337 18.2562 17.9069C19.0921 17.8801 19.8916 17.5582 20.5129 16.9983C21.1342 16.4385 21.5373 15.6767 21.6508 14.8481C22.083 14.6507 22.4494 14.3332 22.7063 13.9334C22.9631 13.5337 23.0997 13.0685 23.0996 12.5933V10.2026C23.0997 9.44982 22.8598 8.71667 22.4149 8.10951C21.97 7.50235 21.3431 7.05278 20.6253 6.82606L19.4597 3.32918C19.2247 2.62467 18.7742 2.01188 18.1718 1.5775C17.5694 1.14313 16.8457 0.909157 16.1031 0.908692H11.3117C10.6798 0.908301 10.0594 1.07699 9.5147 1.39727C8.97004 1.71754 8.521 2.17772 8.21417 2.73007L6.03305 6.66318L3.0687 7.45349C2.31446 7.65423 1.64769 8.09855 1.17205 8.71737C0.696415 9.33618 0.438566 10.0948 0.438599 10.8753V12.5933ZM18.1425 12.2392C18.706 12.2392 19.2464 12.463 19.6448 12.8615C20.0432 13.2599 20.267 13.8002 20.267 14.3637C20.267 14.9271 20.0432 15.4675 19.6448 15.8659C19.2464 16.2643 18.706 16.4882 18.1425 16.4882C17.5791 16.4882 17.0387 16.2643 16.6403 15.8659C16.2419 15.4675 16.0181 14.9271 16.0181 14.3637C16.0181 13.8002 16.2419 13.2599 16.6403 12.8615C17.0387 12.463 17.5791 12.2392 18.1425 12.2392ZM5.3957 12.2392C5.95915 12.2392 6.49952 12.463 6.89793 12.8615C7.29635 13.2599 7.52018 13.8002 7.52018 14.3637C7.52018 14.9271 7.29635 15.4675 6.89793 15.8659C6.49952 16.2643 5.95915 16.4882 5.3957 16.4882C4.83226 16.4882 4.29189 16.2643 3.89347 15.8659C3.49506 15.4675 3.27123 14.9271 3.27123 14.3637C3.27123 13.8002 3.49506 13.2599 3.89347 12.8615C4.29189 12.463 4.83226 12.2392 5.3957 12.2392Z" fill="#424242"/>
</svg>
