<svg width="19" height="19" viewBox="0 0 19 19" fill="none" xmlns="http://www.w3.org/2000/svg">
<path d="M1.86986 13.1634C2.01985 15.4124 2.09442 16.5377 2.82739 17.2223C3.56037 17.9087 4.68823 17.9087 6.94224 17.9087H7.59811C9.85212 17.9087 10.9791 17.9087 11.713 17.2223C12.4459 16.5368 12.5205 15.4124 12.6705 13.1634L12.9611 8.81301C13.0738 7.11827 13.1306 6.27174 12.6281 5.73535C12.1256 5.19812 11.2766 5.19812 9.57926 5.19812H4.96108C3.26379 5.19812 2.41472 5.19812 1.91223 5.73535C1.40974 6.27174 1.46651 7.11911 1.57921 8.81301L1.62836 9.54769" stroke="#424242" stroke-width="1.5" stroke-linecap="round"/>
<path d="M13.2019 13.6718H14.0493C14.9482 13.6718 15.8104 13.3147 16.446 12.679C17.0817 12.0434 17.4388 11.1813 17.4388 10.2823C17.4388 9.38337 17.0817 8.52123 16.446 7.88558C15.8104 7.24993 14.9482 6.89282 14.0493 6.89282H13.2019" stroke="#424242" stroke-width="1.5"/>
<path d="M7.27027 15.1547C7.43883 15.1547 7.60048 15.0878 7.71966 14.9686C7.83885 14.8494 7.9058 14.6877 7.9058 14.5192C7.9058 14.3506 7.83885 14.189 7.71966 14.0698C7.60048 13.9506 7.43883 13.8837 7.27027 13.8837V15.1547ZM10.2361 13.8837C10.0675 13.8837 9.90588 13.9506 9.78669 14.0698C9.66751 14.189 9.60055 14.3506 9.60055 14.5192C9.60055 14.6877 9.66751 14.8494 9.78669 14.9686C9.90588 15.0878 10.0675 15.1547 10.2361 15.1547V13.8837ZM7.27027 13.8837H2.18604V15.1547H7.27027V13.8837ZM12.3545 13.8837H10.2361V15.1547H12.3545V13.8837Z" fill="#424242"/>
<path d="M3.92268 3.55504L4.27095 3.0678C4.31676 3.00373 4.34947 2.93125 4.36723 2.85452C4.385 2.77779 4.38746 2.69831 4.37447 2.62063C4.36148 2.54295 4.33331 2.46859 4.29155 2.40181C4.2498 2.33503 4.19529 2.27713 4.13114 2.23144C4.00182 2.13917 3.91444 1.99932 3.88822 1.84264C3.862 1.68596 3.89909 1.52527 3.99132 1.39593L4.33874 0.908691M10.7025 3.55504L11.0499 3.0678C11.0957 3.00373 11.1285 2.93125 11.1462 2.85452C11.164 2.77779 11.1664 2.69831 11.1535 2.62063C11.1405 2.54295 11.1123 2.46859 11.0705 2.40181C11.0288 2.33503 10.9743 2.27713 10.9101 2.23144C10.7808 2.13917 10.6934 1.99932 10.6672 1.84264C10.641 1.68596 10.6781 1.52527 10.7703 1.39593L11.1177 0.908691M7.31302 3.55504L7.66045 3.0678C7.70625 3.00373 7.73896 2.93125 7.75673 2.85452C7.77449 2.77779 7.77695 2.69831 7.76396 2.62063C7.75098 2.54295 7.7228 2.46859 7.68105 2.40181C7.63929 2.33503 7.58478 2.27713 7.52063 2.23144C7.39131 2.13917 7.30394 1.99932 7.27772 1.84264C7.2515 1.68596 7.28858 1.52527 7.38081 1.39593L7.72824 0.908691" stroke="#424242" stroke-width="1.5" stroke-linecap="round"/>
</svg>
