<svg width="17" height="18" viewBox="0 0 17 18" fill="none" xmlns="http://www.w3.org/2000/svg">
<path d="M15.8819 7.68827L9.08132 1.27193C9.078 1.26903 9.07487 1.2659 9.07197 1.26258C8.82159 1.03487 8.49531 0.908691 8.15687 0.908691C7.81843 0.908691 7.49215 1.03487 7.24177 1.26258L7.23242 1.27193L0.439487 7.68827C0.300924 7.81569 0.190317 7.97048 0.114668 8.14285C0.0390176 8.31522 -2.85989e-05 8.50142 1.5716e-08 8.68966V16.5486C1.5716e-08 16.9093 0.143297 17.2553 0.398369 17.5103C0.65344 17.7654 0.999391 17.9087 1.36012 17.9087H5.44046C5.80119 17.9087 6.14714 17.7654 6.40221 17.5103C6.65728 17.2553 6.80058 16.9093 6.80058 16.5486V12.4682H9.52081V16.5486C9.52081 16.9093 9.66411 17.2553 9.91918 17.5103C10.1742 17.7654 10.5202 17.9087 10.8809 17.9087H14.9613C15.322 17.9087 15.6679 17.7654 15.923 17.5103C16.1781 17.2553 16.3214 16.9093 16.3214 16.5486V8.68966C16.3214 8.50142 16.2824 8.31522 16.2067 8.14285C16.1311 7.97048 16.0205 7.81569 15.8819 7.68827ZM14.9613 16.5486H10.8809V12.4682C10.8809 12.1075 10.7376 11.7616 10.4826 11.5065C10.2275 11.2514 9.88153 11.1081 9.52081 11.1081H6.80058C6.43985 11.1081 6.0939 11.2514 5.83883 11.5065C5.58376 11.7616 5.44046 12.1075 5.44046 12.4682V16.5486H1.36012V8.68966L1.36947 8.68116L8.16069 2.26736L14.9528 8.67946L14.9621 8.68796L14.9613 16.5486Z" fill="#424242"/>
</svg>
