<svg width="729" height="325" viewBox="0 0 729 325" fill="none" xmlns="http://www.w3.org/2000/svg">
<path d="M76.1207 166.962V102.994C76.1207 96.3743 74.0332 90.986 69.8581 86.8292C65.683 82.6725 60.2708 80.5942 53.6216 80.5942C49.2919 80.5942 45.426 81.5179 42.0241 83.3653C38.6222 85.2127 35.9161 87.8299 33.9059 91.2169C32.0503 94.6039 31.1225 98.5296 31.1225 102.994L19.293 96.9901C19.293 88.2148 21.1486 80.5942 24.8598 74.1282C28.571 67.5082 33.6739 62.3508 40.1685 58.6559C46.8177 54.9611 54.3948 53.1136 62.8996 53.1136C71.4044 53.1136 78.9041 54.9611 85.3987 58.6559C92.0479 62.3508 97.2281 67.4312 100.939 73.8972C104.651 80.3632 106.506 87.8299 106.506 96.2973V166.962H76.1207ZM0.737061 166.962V0H31.1225V166.962H0.737061Z" fill="#424242"/>
<path d="M183.635 169.271C172.347 169.271 162.141 166.731 153.017 161.65C144.049 156.416 136.858 149.411 131.446 140.636C126.189 131.706 123.56 121.776 123.56 110.846C123.56 99.9152 126.189 90.1392 131.446 81.5179C136.704 72.7426 143.894 65.8147 153.017 60.7343C162.141 55.4999 172.269 52.8827 183.403 52.8827C194.846 52.8827 205.052 55.4999 214.02 60.7343C223.144 65.8147 230.334 72.7426 235.592 81.5179C240.849 90.1392 243.478 99.9152 243.478 110.846C243.478 121.776 240.849 131.706 235.592 140.636C230.334 149.411 223.144 156.416 214.02 161.65C205.052 166.731 194.923 169.271 183.635 169.271ZM183.403 141.098C189.124 141.098 194.15 139.866 198.48 137.403C202.964 134.785 206.366 131.245 208.685 126.78C211.16 122.161 212.397 116.927 212.397 111.077C212.397 105.227 211.16 100.069 208.685 95.6045C206.211 91.1399 202.809 87.676 198.48 85.2127C194.15 82.5955 189.124 81.287 183.403 81.287C177.836 81.287 172.888 82.5955 168.558 85.2127C164.228 87.676 160.826 91.1399 158.352 95.6045C155.878 100.069 154.641 105.227 154.641 111.077C154.641 116.927 155.878 122.161 158.352 126.78C160.826 131.245 164.228 134.785 168.558 137.403C172.888 139.866 177.836 141.098 183.403 141.098Z" fill="#424242"/>
<path d="M263.04 166.962V0H293.425V166.962H263.04Z" fill="#424242"/>
<path d="M320.347 166.962V55.4229H350.965V166.962H320.347ZM335.656 37.4105C330.708 37.4105 326.61 35.794 323.363 32.561C320.115 29.174 318.492 25.0173 318.492 20.0908C318.492 15.3183 320.115 11.2385 323.363 7.85159C326.61 4.46463 330.708 2.77115 335.656 2.77115C340.759 2.77115 344.857 4.46463 347.949 7.85159C351.197 11.2385 352.82 15.3183 352.82 20.0908C352.82 25.0173 351.197 29.174 347.949 32.561C344.857 35.794 340.759 37.4105 335.656 37.4105Z" fill="#424242"/>
<path d="M288.476 325C278.076 325 268.762 322.46 260.535 317.379C252.309 312.299 245.789 305.371 240.977 296.596C236.32 287.82 233.992 277.968 233.992 267.037C233.992 255.952 236.32 246.022 240.977 237.247C245.789 228.472 252.231 221.544 260.303 216.463C268.53 211.383 277.921 208.843 288.476 208.843C296.548 208.843 303.766 210.459 310.13 213.692C316.649 216.925 321.849 221.467 325.73 227.317C329.766 233.013 331.939 239.479 332.249 246.715V286.435C331.939 293.671 329.843 300.214 325.963 306.064C322.082 311.914 316.882 316.533 310.363 319.92C303.843 323.307 296.548 325 288.476 325ZM293.598 297.058C299.342 297.058 304.309 295.826 308.5 293.363C312.846 290.746 316.184 287.205 318.512 282.74C320.996 278.121 322.237 272.81 322.237 266.806C322.237 260.956 320.996 255.798 318.512 251.334C316.184 246.715 312.846 243.174 308.5 240.711C304.309 238.094 299.419 236.785 293.831 236.785C288.088 236.785 283.043 238.094 278.697 240.711C274.506 243.328 271.168 246.869 268.685 251.334C266.356 255.798 265.192 260.956 265.192 266.806C265.192 272.81 266.356 278.121 268.685 282.74C271.168 287.205 274.583 290.746 278.93 293.363C283.276 295.826 288.166 297.058 293.598 297.058ZM350.877 322.691H320.608V292.67L325.497 265.42L320.375 238.633V155.729H350.877V322.691Z" fill="#424242"/>
<path d="M424.893 325C414.649 325 405.413 322.46 397.186 317.379C388.959 312.299 382.517 305.371 377.86 296.596C373.203 287.82 370.875 277.968 370.875 267.037C370.875 255.952 373.203 246.022 377.86 237.247C382.517 228.472 388.959 221.544 397.186 216.463C405.413 211.383 414.649 208.843 424.893 208.843C432.965 208.843 440.183 210.459 446.547 213.692C452.912 216.925 457.956 221.467 461.682 227.317C465.562 233.013 467.658 239.479 467.968 246.715V286.897C467.658 294.286 465.562 300.829 461.682 306.526C457.956 312.222 452.912 316.764 446.547 320.151C440.183 323.384 432.965 325 424.893 325ZM430.482 297.058C439.019 297.058 445.926 294.286 451.204 288.744C456.482 283.048 459.121 275.735 459.121 266.806C459.121 260.956 457.879 255.798 455.395 251.334C453.067 246.715 449.729 243.174 445.383 240.711C441.192 238.094 436.225 236.785 430.482 236.785C424.893 236.785 419.926 238.094 415.58 240.711C411.389 243.174 408.051 246.715 405.568 251.334C403.239 255.798 402.075 260.956 402.075 266.806C402.075 272.81 403.239 278.121 405.568 282.74C408.051 287.205 411.389 290.746 415.58 293.363C419.926 295.826 424.893 297.058 430.482 297.058ZM457.491 322.691V292.67L462.38 265.42L457.491 238.633V211.152H487.76V322.691H457.491Z" fill="#424242"/>
<path d="M506.827 305.371L566.433 228.472H603.222L543.615 305.371H506.827ZM506.827 322.691V305.371L531.042 296.365H601.825V322.691H506.827ZM511.018 237.478V211.152H603.222V228.472L578.774 237.478H511.018Z" fill="#424242"/>
<path d="M674.943 325C663.146 325 652.668 322.537 643.51 317.61C634.352 312.53 627.056 305.602 621.623 296.827C616.345 288.051 613.707 278.044 613.707 266.806C613.707 255.721 616.268 245.868 621.39 237.247C626.668 228.472 633.808 221.544 642.811 216.463C651.814 211.229 661.826 208.612 672.847 208.612C683.713 208.612 693.26 211.075 701.486 216.002C709.869 220.774 716.388 227.394 721.045 235.861C725.857 244.175 728.263 253.643 728.263 264.266C728.263 266.267 728.108 268.345 727.797 270.501C727.642 272.502 727.254 274.811 726.633 277.429L632.101 277.66V255.029L712.43 254.798L700.089 264.266C699.779 257.646 698.537 252.103 696.364 247.639C694.346 243.174 691.319 239.787 687.283 237.478C683.403 235.015 678.591 233.783 672.847 233.783C666.794 233.783 661.516 235.169 657.014 237.94C652.513 240.557 649.02 244.329 646.537 249.255C644.208 254.028 643.044 259.724 643.044 266.344C643.044 273.118 644.286 279.045 646.77 284.126C649.408 289.052 653.134 292.901 657.946 295.672C662.758 298.289 668.346 299.598 674.71 299.598C680.453 299.598 685.654 298.674 690.31 296.827C694.967 294.825 699.003 291.9 702.418 288.051L720.346 305.833C714.913 312.145 708.239 316.918 700.322 320.151C692.561 323.384 684.101 325 674.943 325Z" fill="#424242"/>
</svg>
