<svg width="306" height="137" viewBox="0 0 306 137" fill="none" xmlns="http://www.w3.org/2000/svg">
<path d="M32.324 70.367V43.5991C32.324 40.8289 31.4504 38.5741 29.7033 36.8347C27.9562 35.0953 25.6914 34.2256 22.909 34.2256C21.0971 34.2256 19.4794 34.6121 18.0558 35.3852C16.6323 36.1583 15.4999 37.2535 14.6587 38.6708C13.8822 40.0881 13.4939 41.7309 13.4939 43.5991L8.54377 41.0866C8.54377 37.4145 9.32027 34.2256 10.8733 31.5198C12.4263 28.7496 14.5616 26.5914 17.2794 25.0452C20.0618 23.4991 23.2325 22.726 26.7914 22.726C30.3504 22.726 33.4887 23.4991 36.2064 25.0452C38.9889 26.5914 41.1566 28.7174 42.7096 31.4231C44.2626 34.1289 45.0391 37.2535 45.0391 40.7967V70.367H32.324ZM0.778809 70.367V0.5H13.4939V70.367H0.778809Z" fill="white"/>
<path d="M77.3145 71.3333C72.5908 71.3333 68.3201 70.2703 64.5023 68.1444C60.7492 65.954 57.7403 63.0227 55.4755 59.3506C53.2755 55.6141 52.1754 51.4588 52.1754 46.8847C52.1754 42.3107 53.2755 38.2198 55.4755 34.6121C57.6756 30.94 60.6845 28.0409 64.5023 25.915C68.3201 23.7246 72.5584 22.6294 77.2174 22.6294C82.0058 22.6294 86.2766 23.7246 90.0296 25.915C93.8474 28.0409 96.8563 30.94 99.0564 34.6121C101.256 38.2198 102.356 42.3107 102.356 46.8847C102.356 51.4588 101.256 55.6141 99.0564 59.3506C96.8563 63.0227 93.8474 65.954 90.0296 68.1444C86.2766 70.2703 82.0382 71.3333 77.3145 71.3333ZM77.2174 59.5439C79.6116 59.5439 81.7146 59.0285 83.5265 57.9977C85.403 56.9025 86.8266 55.4208 87.7972 53.5525C88.8325 51.6198 89.3502 49.4294 89.3502 46.9814C89.3502 44.5333 88.8325 42.3751 87.7972 40.5068C86.7619 38.6385 85.3383 37.189 83.5265 36.1583C81.7146 35.0631 79.6116 34.5155 77.2174 34.5155C74.8879 34.5155 72.8173 35.0631 71.0055 36.1583C69.1936 37.189 67.7701 38.6385 66.7347 40.5068C65.6994 42.3751 65.1817 44.5333 65.1817 46.9814C65.1817 49.4294 65.6994 51.6198 66.7347 53.5525C67.7701 55.4208 69.1936 56.9025 71.0055 57.9977C72.8173 59.0285 74.8879 59.5439 77.2174 59.5439Z" fill="white"/>
<path d="M110.542 70.367V0.5H123.257V70.367H110.542Z" fill="white"/>
<path d="M134.523 70.367V23.6924H147.336V70.367H134.523ZM140.93 16.1548C138.859 16.1548 137.144 15.4784 135.785 14.1255C134.426 12.7082 133.747 10.9688 133.747 8.90723C133.747 6.91011 134.426 5.2029 135.785 3.78559C137.144 2.36828 138.859 1.65962 140.93 1.65962C143.065 1.65962 144.78 2.36828 146.074 3.78559C147.433 5.2029 148.112 6.91011 148.112 8.90723C148.112 10.9688 147.433 12.7082 146.074 14.1255C144.78 15.4784 143.065 16.1548 140.93 16.1548Z" fill="white"/>
<path d="M121.187 136.5C116.835 136.5 112.938 135.437 109.495 133.311C106.052 131.185 103.324 128.286 101.311 124.614C99.362 120.942 98.3877 116.819 98.3877 112.245C98.3877 107.606 99.362 103.451 101.311 99.7788C103.324 96.1067 106.02 93.2077 109.398 91.0817C112.84 88.9557 116.77 87.8928 121.187 87.8928C124.565 87.8928 127.585 88.5692 130.248 89.9221C132.977 91.275 135.153 93.1755 136.777 95.6235C138.465 98.0072 139.375 100.713 139.505 103.741V120.362C139.375 123.39 138.498 126.128 136.874 128.576C135.25 131.024 133.074 132.957 130.346 134.374C127.618 135.791 124.565 136.5 121.187 136.5ZM123.331 124.807C125.734 124.807 127.813 124.292 129.566 123.261C131.385 122.166 132.782 120.684 133.756 118.816C134.795 116.883 135.315 114.661 135.315 112.148C135.315 109.7 134.795 107.542 133.756 105.674C132.782 103.741 131.385 102.259 129.566 101.228C127.813 100.133 125.767 99.5856 123.428 99.5856C121.025 99.5856 118.914 100.133 117.095 101.228C115.341 102.324 113.945 103.805 112.905 105.674C111.931 107.542 111.444 109.7 111.444 112.148C111.444 114.661 111.931 116.883 112.905 118.816C113.945 120.684 115.374 122.166 117.192 123.261C119.011 124.292 121.057 124.807 123.331 124.807ZM147.299 135.534H134.633V122.971L136.679 111.568L134.536 100.359V65.6667H147.299V135.534Z" fill="white"/>
<path d="M178.273 136.5C173.986 136.5 170.121 135.437 166.678 133.311C163.235 131.185 160.54 128.286 158.591 124.614C156.642 120.942 155.668 116.819 155.668 112.245C155.668 107.606 156.642 103.451 158.591 99.7788C160.54 96.1067 163.235 93.2077 166.678 91.0817C170.121 88.9557 173.986 87.8928 178.273 87.8928C181.65 87.8928 184.671 88.5692 187.334 89.9221C189.997 91.275 192.108 93.1755 193.667 95.6235C195.291 98.0072 196.168 100.713 196.298 103.741V120.555C196.168 123.648 195.291 126.386 193.667 128.769C192.108 131.153 189.997 133.053 187.334 134.471C184.671 135.824 181.65 136.5 178.273 136.5ZM180.611 124.807C184.184 124.807 187.074 123.648 189.283 121.328C191.491 118.945 192.595 115.885 192.595 112.148C192.595 109.7 192.076 107.542 191.036 105.674C190.062 103.741 188.666 102.259 186.847 101.228C185.093 100.133 183.014 99.5856 180.611 99.5856C178.273 99.5856 176.194 100.133 174.375 101.228C172.621 102.259 171.225 103.741 170.186 105.674C169.211 107.542 168.724 109.7 168.724 112.148C168.724 114.661 169.211 116.883 170.186 118.816C171.225 120.684 172.621 122.166 174.375 123.261C176.194 124.292 178.273 124.807 180.611 124.807ZM191.913 135.534V122.971L193.959 111.568L191.913 100.359V88.8591H204.58V135.534H191.913Z" fill="white"/>
<path d="M212.559 128.286L237.502 96.1067H252.896L227.953 128.286H212.559ZM212.559 135.534V128.286L222.692 124.517H252.312V135.534H212.559ZM214.312 99.8755V88.8591H252.896V96.1067L242.666 99.8755H214.312Z" fill="white"/>
<path d="M282.909 136.5C277.972 136.5 273.588 135.469 269.755 133.408C265.923 131.282 262.87 128.383 260.596 124.711C258.388 121.039 257.284 116.851 257.284 112.148C257.284 107.51 258.355 103.387 260.499 99.7788C262.707 96.1067 265.695 93.2077 269.463 91.0817C273.23 88.8913 277.42 87.7961 282.032 87.7961C286.579 87.7961 290.574 88.8269 294.016 90.8884C297.524 92.8856 300.252 95.6558 302.201 99.199C304.214 102.678 305.221 106.64 305.221 111.085C305.221 111.923 305.156 112.792 305.026 113.694C304.961 114.532 304.799 115.498 304.539 116.593L264.981 116.69V107.22L298.596 107.123L293.432 111.085C293.302 108.315 292.782 105.996 291.873 104.127C291.028 102.259 289.762 100.842 288.073 99.8755C286.449 98.8447 284.435 98.3293 282.032 98.3293C279.499 98.3293 277.29 98.9091 275.406 100.069C273.523 101.164 272.061 102.742 271.022 104.804C270.047 106.801 269.56 109.185 269.56 111.955C269.56 114.789 270.08 117.27 271.119 119.396C272.224 121.457 273.782 123.068 275.796 124.227C277.81 125.323 280.148 125.87 282.811 125.87C285.215 125.87 287.391 125.484 289.339 124.711C291.288 123.873 292.977 122.649 294.406 121.039L301.908 128.479C299.635 131.121 296.842 133.118 293.529 134.471C290.281 135.824 286.741 136.5 282.909 136.5Z" fill="white"/>
</svg>
