<svg width="23" height="21" viewBox="0 0 23 21" fill="none" xmlns="http://www.w3.org/2000/svg">
<path d="M8.76288 10.5391C8.76242 8.88354 9.18903 7.25581 10.0015 5.81325C10.8139 4.3707 11.9847 3.1621 13.4008 2.30427C12.0397 2.2187 10.6787 2.47188 9.4394 3.04114C8.20015 3.6104 7.12135 4.47799 6.29951 5.56628C5.47767 6.65458 4.93843 7.92963 4.73004 9.27736C4.52165 10.6251 4.65061 12.0035 5.10538 13.2891H9.16163C8.89647 12.3966 8.76215 11.4703 8.76288 10.5391ZM4.18963 14.6641C3.30102 12.7938 3.03928 10.6868 3.44326 8.65591C3.84724 6.62502 4.8954 4.77856 6.43212 3.39068C7.96884 2.0028 9.91217 1.1475 11.9736 0.95179C14.035 0.756076 16.1046 1.23037 17.875 2.30427C16.4727 2.39111 15.1158 2.83466 13.9329 3.59286C12.7501 4.35105 11.7804 5.39878 11.1159 6.63672C10.4515 7.87466 10.1141 9.26179 10.136 10.6666C10.1578 12.0715 10.538 13.4474 11.2406 14.6641H4.18688H4.18963Z" fill="#424242"/>
<path d="M1.20044 13.2892H21.8254C22.2838 13.2892 22.5129 13.5184 22.5129 13.9767C22.5129 14.435 22.2838 14.6642 21.8254 14.6642H1.20044C0.742106 14.6642 0.512939 14.435 0.512939 13.9767C0.512939 13.5184 0.742106 13.2892 1.20044 13.2892ZM3.95044 16.0392H12.2004C12.3828 16.0392 12.5576 16.1116 12.6866 16.2405C12.8155 16.3695 12.8879 16.5443 12.8879 16.7267C12.8879 16.909 12.8155 17.0839 12.6866 17.2128C12.5576 17.3418 12.3828 17.4142 12.2004 17.4142H3.95044C3.7681 17.4142 3.59323 17.3418 3.4643 17.2128C3.33537 17.0839 3.26294 16.909 3.26294 16.7267C3.26294 16.5443 3.33537 16.3695 3.4643 16.2405C3.59323 16.1116 3.7681 16.0392 3.95044 16.0392ZM7.38794 18.7823L12.2004 18.7878C12.3828 18.7878 12.5576 18.8602 12.6866 18.9892C12.8155 19.1181 12.8879 19.293 12.8879 19.4753V19.4767C12.8879 19.659 12.8155 19.8339 12.6866 19.9628C12.5576 20.0918 12.3828 20.1642 12.2004 20.1642L7.38794 20.1559C7.2056 20.1559 7.03073 20.0835 6.9018 19.9546C6.77287 19.8256 6.70044 19.6508 6.70044 19.4684V19.4671C6.70044 19.2847 6.77287 19.1099 6.9018 18.9809C7.03073 18.852 7.2056 18.7796 7.38794 18.7796V18.7823Z" fill="#424242"/>
</svg>
