<svg width="59" height="55" viewBox="0 0 59 55" fill="none" xmlns="http://www.w3.org/2000/svg">
<path d="M38.8709 4.21979L40.2524 8.33127H33.6597V2.08282H35.8832C36.5442 2.08288 37.1885 2.2893 37.7248 2.67284C38.261 3.05639 38.662 3.59759 38.8709 4.21979ZM40.9516 10.4141L40.9579 10.4349L41.5164 10.5724L41.7726 10.6349C42.4542 10.804 43.0592 11.1944 43.4914 11.7439C43.9235 12.2934 44.1581 12.9705 44.1577 13.6674V17.1832C44.1577 17.5165 44.0527 17.8289 43.8701 18.083C43.4943 17.0035 42.7712 16.0765 41.8121 15.4447C40.8531 14.813 39.7112 14.5115 38.5624 14.5868C37.4137 14.6621 36.3217 15.1099 35.4548 15.8614C34.5878 16.6128 33.994 17.6262 33.7646 18.7454H25.1562C24.9269 17.6262 24.3331 16.6128 23.4661 15.8614C22.5992 15.1099 21.5072 14.6621 20.3585 14.5868C19.2097 14.5115 18.0678 14.813 17.1088 15.4447C16.1497 16.0765 15.4266 17.0035 15.0508 18.083C14.8633 17.8199 14.7628 17.5055 14.7632 17.1832V14.6568C14.7629 13.968 14.9921 13.2985 15.4151 12.7523C15.8381 12.2061 16.4312 11.8139 17.1021 11.6367L21.7255 10.4141H40.9516ZM23.4304 8.33127L26.0297 3.69075C26.3021 3.20391 26.7007 2.79814 27.1843 2.51543C27.6679 2.23273 28.2189 2.08337 28.7802 2.08282H31.5601V8.33127H23.4304ZM12.6636 17.1832C12.6636 18.6558 13.5454 19.9242 14.8115 20.4991C14.9796 21.7177 15.5772 22.8379 16.4983 23.6612C17.4194 24.4846 18.6045 24.9579 19.8438 24.9973C21.083 25.0367 22.2963 24.6397 23.2687 23.8766C24.2411 23.1135 24.9097 22.0336 25.1562 20.8282H33.7646C34.0111 22.0336 34.6798 23.1135 35.6522 23.8766C36.6246 24.6397 37.8379 25.0367 39.0771 24.9973C40.3164 24.9579 41.5015 24.4846 42.4226 23.6612C43.3437 22.8379 43.9413 21.7177 44.1094 20.4991C44.7502 20.2088 45.2933 19.7419 45.6741 19.154C46.055 18.5661 46.2574 17.882 46.2573 17.1832V13.6674C46.2574 12.5605 45.9018 11.4823 45.2422 10.5894C44.5826 9.69656 43.6534 9.03543 42.5893 8.70201L40.8613 3.55954C40.513 2.52349 39.8451 1.62233 38.9521 0.983547C38.0591 0.344759 36.9862 0.000684611 35.8853 9.97129e-07H28.7823C27.8456 -0.000573956 26.9258 0.247503 26.1184 0.718492C25.311 1.18948 24.6453 1.86622 24.1904 2.6785L20.957 8.46249L16.5625 9.6247C15.4444 9.91991 14.456 10.5733 13.7509 11.4833C13.0458 12.3934 12.6635 13.509 12.6636 14.6568V17.1832ZM38.9087 16.6625C39.744 16.6625 40.545 16.9917 41.1357 17.5776C41.7263 18.1635 42.0581 18.9582 42.0581 19.7868C42.0581 20.6154 41.7263 21.41 41.1357 21.9959C40.545 22.5818 39.744 22.911 38.9087 22.911C38.0734 22.911 37.2723 22.5818 36.6817 21.9959C36.0911 21.41 35.7593 20.6154 35.7593 19.7868C35.7593 18.9582 36.0911 18.1635 36.6817 17.5776C37.2723 16.9917 38.0734 16.6625 38.9087 16.6625ZM20.0122 16.6625C20.8475 16.6625 21.6485 16.9917 22.2392 17.5776C22.8298 18.1635 23.1616 18.9582 23.1616 19.7868C23.1616 20.6154 22.8298 21.41 22.2392 21.9959C21.6485 22.5818 20.8475 22.911 20.0122 22.911C19.1769 22.911 18.3759 22.5818 17.7852 21.9959C17.1946 21.41 16.8628 20.6154 16.8628 19.7868C16.8628 18.9582 17.1946 18.1635 17.7852 17.5776C18.3759 16.9917 19.1769 16.6625 20.0122 16.6625Z" fill="#424242"/>
<path d="M5.51645 51.16C4.94045 51.16 4.41778 51.0427 3.94845 50.808C3.48978 50.5627 3.12178 50.2267 2.84445 49.8C2.56712 49.3733 2.41245 48.888 2.38045 48.344V46.056C2.41245 45.5013 2.56712 45.016 2.84445 44.6C3.13245 44.1733 3.50578 43.8427 3.96445 43.608C4.43378 43.3627 4.95112 43.24 5.51645 43.24C6.20978 43.24 6.83378 43.416 7.38845 43.768C7.95378 44.12 8.39645 44.5947 8.71645 45.192C9.03645 45.7893 9.19645 46.4613 9.19645 47.208C9.19645 47.9547 9.03645 48.6267 8.71645 49.224C8.39645 49.8213 7.95378 50.296 7.38845 50.648C6.83378 50.9893 6.20978 51.16 5.51645 51.16ZM5.27645 49.8C5.75645 49.8 6.17778 49.688 6.54045 49.464C6.90312 49.24 7.19112 48.936 7.40445 48.552C7.61778 48.1573 7.72445 47.704 7.72445 47.192C7.72445 46.6907 7.61778 46.2427 7.40445 45.848C7.19112 45.4533 6.90312 45.1493 6.54045 44.936C6.17778 44.712 5.76178 44.6 5.29245 44.6C4.81245 44.6 4.39112 44.712 4.02845 44.936C3.66578 45.1493 3.38312 45.4533 3.18045 45.848C2.97778 46.2427 2.87645 46.696 2.87645 47.208C2.87645 47.7093 2.97245 48.1573 3.16445 48.552C3.36712 48.936 3.64978 49.24 4.01245 49.464C4.38578 49.688 4.80712 49.8 5.27645 49.8ZM1.51645 54.184V43.4H2.95645V45.4L2.68445 47.24L2.95645 49.096V54.184H1.51645ZM14.5409 51.16C13.8476 51.16 13.2183 50.9893 12.6529 50.648C12.0876 50.296 11.6396 49.8213 11.3089 49.224C10.9889 48.6267 10.8289 47.9547 10.8289 47.208C10.8289 46.4613 10.9889 45.7893 11.3089 45.192C11.6396 44.5947 12.0823 44.12 12.6369 43.768C13.2023 43.416 13.8369 43.24 14.5409 43.24C15.1169 43.24 15.6289 43.3627 16.0769 43.608C16.5356 43.8427 16.9036 44.1733 17.1809 44.6C17.4583 45.016 17.6129 45.5013 17.6449 46.056V48.344C17.6129 48.888 17.4583 49.3733 17.1809 49.8C16.9143 50.2267 16.5516 50.5627 16.0929 50.808C15.6449 51.0427 15.1276 51.16 14.5409 51.16ZM14.7809 49.8C15.4956 49.8 16.0716 49.56 16.5089 49.08C16.9463 48.5893 17.1649 47.9653 17.1649 47.208C17.1649 46.6853 17.0636 46.232 16.8609 45.848C16.6689 45.4533 16.3916 45.1493 16.0289 44.936C15.6663 44.712 15.2449 44.6 14.7649 44.6C14.2849 44.6 13.8583 44.712 13.4849 44.936C13.1223 45.16 12.8343 45.4693 12.6209 45.864C12.4183 46.248 12.3169 46.6907 12.3169 47.192C12.3169 47.704 12.4183 48.1573 12.6209 48.552C12.8343 48.936 13.1276 49.24 13.5009 49.464C13.8743 49.688 14.3009 49.8 14.7809 49.8ZM17.0689 51V48.952L17.3409 47.096L17.0689 45.256V43.4H18.5249V51H17.0689ZM21.1014 51V43.4H22.5414V51H21.1014ZM22.5414 46.664L21.9974 46.424C21.9974 45.4533 22.2214 44.68 22.6694 44.104C23.1174 43.528 23.7628 43.24 24.6054 43.24C24.9894 43.24 25.3361 43.3093 25.6454 43.448C25.9548 43.576 26.2428 43.7947 26.5094 44.104L25.5654 45.08C25.4054 44.9093 25.2294 44.7867 25.0374 44.712C24.8454 44.6373 24.6214 44.6 24.3654 44.6C23.8321 44.6 23.3948 44.7707 23.0534 45.112C22.7121 45.4533 22.5414 45.9707 22.5414 46.664ZM32.8673 51L29.3153 47.112L32.8353 43.4H34.5793L30.6593 47.496L30.7233 46.664L34.7233 51H32.8673ZM28.0033 51V39.576H29.4433V51H28.0033ZM36.1868 51V43.4H37.6268V51H36.1868ZM36.9068 41.88C36.6402 41.88 36.4215 41.7947 36.2508 41.624C36.0802 41.4427 35.9948 41.2187 35.9948 40.952C35.9948 40.696 36.0802 40.4827 36.2508 40.312C36.4215 40.1307 36.6402 40.04 36.9068 40.04C37.1735 40.04 37.3922 40.1307 37.5628 40.312C37.7335 40.4827 37.8188 40.696 37.8188 40.952C37.8188 41.2187 37.7335 41.4427 37.5628 41.624C37.3922 41.7947 37.1735 41.88 36.9068 41.88ZM45.605 51V46.568C45.605 45.992 45.4236 45.5173 45.061 45.144C44.6983 44.7707 44.229 44.584 43.653 44.584C43.269 44.584 42.9276 44.6693 42.629 44.84C42.3303 45.0107 42.0956 45.2453 41.925 45.544C41.7543 45.8427 41.669 46.184 41.669 46.568L41.077 46.232C41.077 45.656 41.205 45.144 41.461 44.696C41.717 44.248 42.0743 43.896 42.533 43.64C42.9916 43.3733 43.509 43.24 44.085 43.24C44.661 43.24 45.1676 43.384 45.605 43.672C46.053 43.96 46.405 44.3387 46.661 44.808C46.917 45.2667 47.045 45.7573 47.045 46.28V51H45.605ZM40.229 51V43.4H41.669V51H40.229ZM52.6266 54.344C51.8479 54.344 51.1546 54.2 50.5466 53.912C49.9492 53.624 49.4692 53.2187 49.1066 52.696L50.0346 51.752C50.3439 52.1467 50.7119 52.4453 51.1386 52.648C51.5652 52.8613 52.0719 52.968 52.6586 52.968C53.4372 52.968 54.0506 52.76 54.4986 52.344C54.9572 51.9387 55.1866 51.3893 55.1866 50.696V48.808L55.4426 47.096L55.1866 45.4V43.4H56.6266V50.696C56.6266 51.4213 56.4559 52.056 56.1146 52.6C55.7839 53.144 55.3146 53.5707 54.7066 53.88C54.1092 54.1893 53.4159 54.344 52.6266 54.344ZM52.6266 50.872C51.9332 50.872 51.3092 50.7067 50.7546 50.376C50.2106 50.0453 49.7786 49.592 49.4586 49.016C49.1386 48.4293 48.9786 47.7733 48.9786 47.048C48.9786 46.3227 49.1386 45.6773 49.4586 45.112C49.7786 44.536 50.2106 44.0827 50.7546 43.752C51.3092 43.4107 51.9332 43.24 52.6266 43.24C53.2239 43.24 53.7519 43.3573 54.2106 43.592C54.6692 43.8267 55.0319 44.1573 55.2986 44.584C55.5759 45 55.7252 45.4907 55.7466 46.056V48.072C55.7146 48.6267 55.5599 49.1173 55.2826 49.544C55.0159 49.96 54.6532 50.2853 54.1946 50.52C53.7359 50.7547 53.2132 50.872 52.6266 50.872ZM52.9146 49.512C53.3839 49.512 53.7946 49.4107 54.1466 49.208C54.5092 49.0053 54.7866 48.7227 54.9786 48.36C55.1706 47.9867 55.2666 47.5547 55.2666 47.064C55.2666 46.5733 55.1652 46.1467 54.9626 45.784C54.7706 45.4107 54.4986 45.1227 54.1466 44.92C53.7946 44.7067 53.3786 44.6 52.8986 44.6C52.4186 44.6 51.9972 44.7067 51.6346 44.92C51.2719 45.1227 50.9839 45.4107 50.7706 45.784C50.5679 46.1467 50.4666 46.568 50.4666 47.048C50.4666 47.528 50.5679 47.9547 50.7706 48.328C50.9839 48.7013 51.2719 48.9947 51.6346 49.208C52.0079 49.4107 52.4346 49.512 52.9146 49.512Z" fill="#424242"/>
</svg>
