<svg width="23" height="20" viewBox="0 0 23 20" fill="none" xmlns="http://www.w3.org/2000/svg">
<path d="M20.0504 5.62298C19.5065 5.62298 18.9748 5.78426 18.5226 6.08644C18.0704 6.38861 17.7179 6.8181 17.5097 7.3206C17.3016 7.8231 17.2471 8.37603 17.3533 8.90948C17.4594 9.44292 17.7213 9.93293 18.1059 10.3175C18.4905 10.7021 18.9805 10.964 19.5139 11.0701C20.0474 11.1762 20.6003 11.1218 21.1028 10.9136C21.6053 10.7055 22.0348 10.353 22.337 9.9008C22.6391 9.44856 22.8004 8.91688 22.8004 8.37298C22.8004 7.64363 22.5107 6.94416 21.995 6.42843C21.4792 5.91271 20.7798 5.62298 20.0504 5.62298ZM20.0504 9.55155C19.8173 9.55155 19.5895 9.48243 19.3956 9.35292C19.2018 9.22342 19.0508 9.03935 18.9616 8.824C18.8724 8.60864 18.849 8.37167 18.8945 8.14305C18.94 7.91443 19.0522 7.70443 19.217 7.5396C19.3819 7.37478 19.5919 7.26253 19.8205 7.21705C20.0491 7.17158 20.2861 7.19492 20.5014 7.28412C20.7168 7.37332 20.9009 7.52438 21.0304 7.7182C21.1599 7.91201 21.229 8.13988 21.229 8.37298C21.229 8.68555 21.1048 8.98533 20.8838 9.20635C20.6628 9.42738 20.363 9.55155 20.0504 9.55155ZM6.30042 8.37298C6.30042 7.82908 6.13913 7.29739 5.83696 6.84516C5.53478 6.39292 5.10529 6.04045 4.6028 5.83231C4.1003 5.62417 3.54737 5.56971 3.01392 5.67582C2.48047 5.78193 1.99047 6.04384 1.60587 6.42843C1.22128 6.81303 0.959366 7.30303 0.853257 7.83648C0.747147 8.36993 0.801607 8.92286 1.00975 9.42536C1.21789 9.92785 1.57036 10.3573 2.0226 10.6595C2.47483 10.9617 3.00652 11.123 3.55042 11.123C4.27976 11.123 4.97923 10.8332 5.49496 10.3175C6.01068 9.8018 6.30042 9.10232 6.30042 8.37298ZM3.55042 9.55155C3.31732 9.55155 3.08945 9.48243 2.89564 9.35292C2.70182 9.22342 2.55076 9.03935 2.46156 8.824C2.37235 8.60864 2.34902 8.37167 2.39449 8.14305C2.43997 7.91443 2.55221 7.70443 2.71704 7.5396C2.88187 7.37478 3.09187 7.26253 3.32049 7.21705C3.54911 7.17158 3.78608 7.19492 4.00144 7.28412C4.21679 7.37332 4.40086 7.52438 4.53036 7.7182C4.65987 7.91201 4.72899 8.13988 4.72899 8.37298C4.72899 8.68555 4.60482 8.98533 4.38379 9.20635C4.16277 9.42738 3.86299 9.55155 3.55042 9.55155ZM8.2647 6.40869C8.8086 6.40869 9.34028 6.24741 9.79252 5.94523C10.2448 5.64306 10.5972 5.21357 10.8054 4.71107C11.0135 4.20857 11.068 3.65564 10.9619 3.12219C10.8558 2.58875 10.5938 2.09874 10.2092 1.71415C9.82465 1.32955 9.33465 1.06764 8.8012 0.961533C8.26775 0.855424 7.71482 0.909883 7.21232 1.11802C6.70983 1.32616 6.28033 1.67864 5.97816 2.13087C5.67599 2.58311 5.5147 3.11479 5.5147 3.65869C5.5147 4.38804 5.80443 5.08751 6.32016 5.60324C6.83588 6.11896 7.53536 6.40869 8.2647 6.40869ZM8.2647 2.48012C8.4978 2.48012 8.72567 2.54924 8.91948 2.67875C9.1133 2.80825 9.26436 2.99232 9.35356 3.20767C9.44276 3.42303 9.4661 3.66 9.42063 3.88862C9.37515 4.11724 9.2629 4.32724 9.09808 4.49207C8.93325 4.65689 8.72325 4.76914 8.49463 4.81462C8.26601 4.86009 8.02904 4.83675 7.81368 4.74755C7.59833 4.65835 7.41426 4.50729 7.28476 4.31347C7.15525 4.11966 7.08613 3.89179 7.08613 3.65869C7.08613 3.34612 7.2103 3.04634 7.43133 2.82532C7.65235 2.60429 7.95212 2.48012 8.2647 2.48012ZM15.3361 6.40869C15.88 6.40869 16.4117 6.24741 16.8639 5.94523C17.3162 5.64306 17.6687 5.21357 17.8768 4.71107C18.0849 4.20857 18.1394 3.65564 18.0333 3.12219C17.9272 2.58875 17.6653 2.09874 17.2807 1.71415C16.8961 1.32955 16.4061 1.06764 15.8726 0.961533C15.3392 0.855424 14.7862 0.909883 14.2838 1.11802C13.7813 1.32616 13.3518 1.67864 13.0496 2.13087C12.7474 2.58311 12.5861 3.11479 12.5861 3.65869C12.5861 4.38804 12.8759 5.08751 13.3916 5.60324C13.9073 6.11896 14.6068 6.40869 15.3361 6.40869ZM15.3361 2.48012C15.5692 2.48012 15.7971 2.54924 15.9909 2.67875C16.1847 2.80825 16.3358 2.99232 16.425 3.20767C16.5142 3.42303 16.5375 3.66 16.4921 3.88862C16.4466 4.11724 16.3343 4.32724 16.1695 4.49207C16.0047 4.65689 15.7947 4.76914 15.5661 4.81462C15.3374 4.86009 15.1005 4.83675 14.8851 4.74755C14.6698 4.65835 14.4857 4.50729 14.3562 4.31347C14.2267 4.11966 14.1576 3.89179 14.1576 3.65869C14.1576 3.34612 14.2817 3.04634 14.5028 2.82532C14.7238 2.60429 15.0236 2.48012 15.3361 2.48012ZM17.6068 12.386C17.2077 12.1658 16.856 11.8691 16.5717 11.5129C16.2874 11.1566 16.0761 10.7478 15.95 10.3098C15.6887 9.41135 15.143 8.62198 14.3947 8.0603C13.6464 7.49862 12.736 7.19496 11.8004 7.19496C10.8648 7.19496 9.95443 7.49862 9.20615 8.0603C8.45788 8.62198 7.91211 9.41135 7.65086 10.3098C7.3985 11.1911 6.80688 11.9364 6.00577 12.3821C5.23727 12.7979 4.62933 13.4581 4.27811 14.2582C3.9269 15.0583 3.85245 15.9527 4.06655 16.7999C4.28066 17.647 4.77108 18.3986 5.46026 18.9358C6.14944 19.473 6.99804 19.7651 7.87184 19.7658C8.39548 19.7673 8.914 19.6628 9.39613 19.4584C10.9332 18.8245 12.6587 18.8245 14.1959 19.4584C15.1269 19.8633 16.1785 19.8921 17.1303 19.5387C18.0821 19.1852 18.86 18.4771 19.3011 17.5626C19.7422 16.6482 19.8122 15.5985 19.4963 14.6336C19.1804 13.6687 18.5033 12.8636 17.6068 12.387V12.386ZM15.729 18.1944C15.41 18.1947 15.0942 18.1302 14.8009 18.0049C12.8765 17.21 10.7155 17.21 8.79113 18.0049C8.2319 18.2456 7.60118 18.2607 7.0311 18.0469C6.46102 17.833 5.9958 17.4069 5.73289 16.8577C5.46998 16.3085 5.42977 15.6789 5.6207 15.1007C5.81162 14.5226 6.21886 14.0407 6.75711 13.7561C7.33583 13.4365 7.84587 13.006 8.25808 12.4891C8.67029 11.9722 8.97658 11.3792 9.15943 10.7439C9.32548 10.1719 9.67274 9.66923 10.149 9.31155C10.6253 8.95387 11.2048 8.7605 11.8004 8.7605C12.396 8.7605 12.9756 8.95387 13.4518 9.31155C13.9281 9.66923 14.2754 10.1719 14.4414 10.7439C14.6248 11.3804 14.9321 11.9744 15.3455 12.492C15.7589 13.0095 16.2704 13.4405 16.8506 13.76C17.314 14.0086 17.681 14.4049 17.8932 14.8861C18.1054 15.3672 18.1506 15.9055 18.0217 16.4153C17.8927 16.9251 17.597 17.3771 17.1816 17.6995C16.7661 18.0219 16.2548 18.1961 15.729 18.1944Z" fill="#424242"/>
</svg>
