<svg width="28" height="18" viewBox="0 0 28 18" fill="none" xmlns="http://www.w3.org/2000/svg">
<path d="M13.0188 12.5815C14.1571 11.8237 15.0214 10.7196 15.4837 9.43255C15.9461 8.14552 15.9819 6.74387 15.5861 5.43487C15.1902 4.12587 14.3836 2.97902 13.2855 2.1639C12.1874 1.34879 10.8561 0.908691 9.48859 0.908691C8.12104 0.908691 6.78979 1.34879 5.6917 2.1639C4.59362 2.97902 3.787 4.12587 3.39112 5.43487C2.99525 6.74387 3.03113 8.14552 3.49348 9.43255C3.95582 10.7196 4.82007 11.8237 5.95843 12.5815C3.89925 13.3405 2.14066 14.7449 0.945075 16.5852C0.882239 16.6786 0.838593 16.7835 0.816674 16.8939C0.794755 17.0043 0.795 17.118 0.817396 17.2283C0.839791 17.3386 0.88389 17.4434 0.947129 17.5365C1.01037 17.6296 1.09148 17.7092 1.18577 17.7707C1.28005 17.8322 1.38561 17.8744 1.49632 17.8947C1.60703 17.915 1.72068 17.9132 1.83066 17.8892C1.94064 17.8652 2.04476 17.8196 2.13696 17.7551C2.22917 17.6905 2.30762 17.6083 2.36776 17.5131C3.13897 16.327 4.19426 15.3523 5.43781 14.6775C6.68136 14.0027 8.07377 13.6493 9.48859 13.6493C10.9034 13.6493 12.2958 14.0027 13.5394 14.6775C14.7829 15.3523 15.8382 16.327 16.6094 17.5131C16.734 17.6983 16.9264 17.827 17.1451 17.8714C17.3638 17.9158 17.5912 17.8723 17.7781 17.7504C17.9651 17.6285 18.0965 17.4379 18.144 17.2199C18.1915 17.0018 18.1513 16.7738 18.0321 16.5852C16.8365 14.7449 15.0779 13.3405 13.0188 12.5815ZM4.8171 7.28149C4.8171 6.35756 5.09108 5.45437 5.60439 4.68615C6.1177 3.91793 6.84729 3.31917 7.70089 2.9656C8.55449 2.61202 9.49378 2.51951 10.4 2.69976C11.3061 2.88001 12.1385 3.32493 12.7918 3.97825C13.4452 4.63157 13.8901 5.46395 14.0703 6.37013C14.2506 7.27631 14.1581 8.21559 13.8045 9.06919C13.4509 9.92279 12.8522 10.6524 12.0839 11.1657C11.3157 11.679 10.4125 11.953 9.48859 11.953C8.25007 11.9516 7.06267 11.4589 6.1869 10.5832C5.31113 9.70741 4.81851 8.52001 4.8171 7.28149ZM27.1277 17.7605C26.939 17.8835 26.7092 17.9266 26.4888 17.8802C26.2684 17.8338 26.0755 17.7018 25.9524 17.5131C25.1821 16.3263 24.127 15.3511 22.8832 14.6766C21.6394 14.0022 20.2465 13.6498 18.8316 13.6517C18.6063 13.6517 18.3903 13.5622 18.231 13.4029C18.0717 13.2436 17.9822 13.0276 17.9822 12.8023C17.9822 12.5771 18.0717 12.361 18.231 12.2018C18.3903 12.0425 18.6063 11.953 18.8316 11.953C19.5195 11.9523 20.1988 11.7997 20.821 11.5061C21.4431 11.2125 21.9927 10.7851 22.4306 10.2544C22.8684 9.72378 23.1836 9.10298 23.3537 8.43638C23.5237 7.76979 23.5445 7.07385 23.4144 6.39831C23.2843 5.72277 23.0067 5.08429 22.6013 4.52849C22.1958 3.9727 21.6727 3.5133 21.0691 3.18314C20.4656 2.85298 19.7966 2.66019 19.1099 2.61856C18.4232 2.57693 17.7358 2.68748 17.0968 2.94231C16.9926 2.98735 16.8804 3.01105 16.7669 3.01201C16.6534 3.01297 16.5409 2.99117 16.4359 2.9479C16.331 2.90462 16.2358 2.84076 16.156 2.76007C16.0761 2.67938 16.0133 2.58351 15.9711 2.47813C15.929 2.37274 15.9083 2.25997 15.9105 2.14648C15.9127 2.03299 15.9376 1.92109 15.9837 1.81739C16.0299 1.71368 16.0963 1.62028 16.1792 1.5427C16.262 1.46511 16.3596 1.40492 16.4661 1.36568C17.9286 0.78244 19.5552 0.761451 21.0322 1.30677C22.5092 1.85208 23.732 2.92507 24.4645 4.31872C25.1971 5.71237 25.3876 7.32795 24.9993 8.85378C24.611 10.3796 23.6714 11.7076 22.3617 12.5815C24.4209 13.3405 26.1795 14.7449 27.3751 16.5852C27.4981 16.7739 27.5412 17.0037 27.4948 17.2241C27.4484 17.4445 27.3164 17.6374 27.1277 17.7605Z" fill="#424242"/>
</svg>
