<svg width="95" height="55" viewBox="0 0 95 55" fill="none" xmlns="http://www.w3.org/2000/svg">
<path d="M58.7162 6.24385C58.0045 6.24385 57.3088 6.45747 56.717 6.85768C56.1253 7.2579 55.664 7.82674 55.3917 8.49227C55.1193 9.15781 55.0481 9.89014 55.1869 10.5967C55.3258 11.3032 55.6685 11.9522 56.1717 12.4616C56.675 12.9709 57.3162 13.3178 58.0142 13.4584C58.7123 13.5989 59.4358 13.5268 60.0933 13.2511C60.7509 12.9754 61.3129 12.5086 61.7083 11.9096C62.1037 11.3107 62.3147 10.6065 62.3147 9.8861C62.3147 8.92012 61.9356 7.9937 61.2608 7.31064C60.5859 6.62759 59.6706 6.24385 58.7162 6.24385ZM58.7162 11.4471C58.4112 11.4471 58.1131 11.3555 57.8594 11.184C57.6058 11.0125 57.4082 10.7687 57.2914 10.4835C57.1747 10.1982 57.1442 9.88437 57.2037 9.58157C57.2632 9.27877 57.4101 9.00064 57.6257 8.78233C57.8414 8.56403 58.1162 8.41536 58.4154 8.35513C58.7145 8.2949 59.0246 8.32581 59.3064 8.44396C59.5882 8.5621 59.8291 8.76218 59.9985 9.01888C60.168 9.27558 60.2585 9.57737 60.2585 9.8861C60.2585 10.3001 60.096 10.6971 59.8068 10.9899C59.5175 11.2826 59.1253 11.4471 58.7162 11.4471ZM40.7238 9.8861C40.7238 9.16573 40.5128 8.46154 40.1174 7.86258C39.722 7.26361 39.16 6.79678 38.5024 6.5211C37.8449 6.24543 37.1214 6.1733 36.4233 6.31384C35.7253 6.45438 35.0841 6.80127 34.5808 7.31064C34.0776 7.82002 33.7348 8.46901 33.596 9.17553C33.4572 9.88206 33.5284 10.6144 33.8008 11.2799C34.0731 11.9455 34.5344 12.5143 35.1261 12.9145C35.7179 13.3147 36.4136 13.5283 37.1253 13.5283C38.0797 13.5283 38.995 13.1446 39.6699 12.4616C40.3447 11.7785 40.7238 10.8521 40.7238 9.8861ZM37.1253 11.4471C36.8203 11.4471 36.5222 11.3555 36.2685 11.184C36.0149 11.0125 35.8173 10.7687 35.7005 10.4835C35.5838 10.1982 35.5533 9.88437 35.6128 9.58157C35.6723 9.27877 35.8192 9.00064 36.0348 8.78233C36.2505 8.56403 36.5253 8.41536 36.8245 8.35513C37.1236 8.2949 37.4337 8.32581 37.7155 8.44396C37.9973 8.5621 38.2382 8.76218 38.4076 9.01888C38.5771 9.27558 38.6675 9.57737 38.6675 9.8861C38.6675 10.3001 38.5051 10.6971 38.2158 10.9899C37.9266 11.2826 37.5344 11.4471 37.1253 11.4471ZM43.2942 7.2845C44.0059 7.2845 44.7016 7.07088 45.2934 6.67067C45.8852 6.27045 46.3464 5.70161 46.6187 5.03608C46.8911 4.37054 46.9624 3.63821 46.8235 2.93168C46.6847 2.22516 46.3419 1.57617 45.8387 1.06679C45.3354 0.557414 44.6942 0.210523 43.9962 0.0699864C43.2982 -0.0705505 42.5746 0.00157812 41.9171 0.277251C41.2596 0.552924 40.6975 1.01976 40.3021 1.61872C39.9067 2.21769 39.6957 2.92188 39.6957 3.64225C39.6957 4.60823 40.0748 5.53465 40.7497 6.21771C41.4245 6.90076 42.3398 7.2845 43.2942 7.2845ZM43.2942 2.08129C43.5992 2.08129 43.8974 2.17283 44.151 2.34436C44.4046 2.51588 44.6023 2.75967 44.719 3.04489C44.8357 3.33012 44.8663 3.64398 44.8067 3.94678C44.7472 4.24957 44.6004 4.52771 44.3847 4.74602C44.169 4.96432 43.8942 5.11299 43.595 5.17322C43.2959 5.23345 42.9858 5.20254 42.704 5.08439C42.4222 4.96625 42.1813 4.76617 42.0119 4.50947C41.8424 4.25277 41.752 3.95098 41.752 3.64225C41.752 3.22826 41.9144 2.83122 42.2037 2.53848C42.4929 2.24574 42.8852 2.08129 43.2942 2.08129ZM52.5474 7.2845C53.2591 7.2845 53.9549 7.07088 54.5466 6.67067C55.1384 6.27045 55.5996 5.70161 55.872 5.03608C56.1443 4.37054 56.2156 3.63821 56.0768 2.93168C55.9379 2.22516 55.5952 1.57617 55.0919 1.06679C54.5887 0.557414 53.9475 0.210523 53.2494 0.0699864C52.5514 -0.0705505 51.8279 0.00157812 51.1703 0.277251C50.5128 0.552924 49.9508 1.01976 49.5554 1.61872C49.16 2.21769 48.9489 2.92188 48.9489 3.64225C48.9489 4.60823 49.3281 5.53465 50.0029 6.21771C50.6778 6.90076 51.593 7.2845 52.5474 7.2845ZM52.5474 2.08129C52.8524 2.08129 53.1506 2.17283 53.4042 2.34436C53.6578 2.51588 53.8555 2.75967 53.9722 3.04489C54.089 3.33012 54.1195 3.64398 54.06 3.94678C54.0005 4.24957 53.8536 4.52771 53.6379 4.74602C53.4222 4.96432 53.1474 5.11299 52.8483 5.17322C52.5491 5.23345 52.239 5.20254 51.9572 5.08439C51.6754 4.96625 51.4346 4.76617 51.2651 4.50947C51.0957 4.25277 51.0052 3.95098 51.0052 3.64225C51.0052 3.22826 51.1677 2.83122 51.4569 2.53848C51.7461 2.24574 52.1384 2.08129 52.5474 2.08129ZM55.5187 15.2012C54.9965 14.9096 54.5362 14.5166 54.1642 14.0447C53.7922 13.5729 53.5157 13.0314 53.3507 12.4513C53.0088 11.2614 52.2946 10.2159 51.3155 9.47198C50.3363 8.72805 49.1451 8.32587 47.9208 8.32587C46.6965 8.32587 45.5052 8.72805 44.5261 9.47198C43.547 10.2159 42.8328 11.2614 42.4909 12.4513C42.1607 13.6186 41.3866 14.6056 40.3383 15.196C39.3327 15.7467 38.5371 16.6211 38.0776 17.6808C37.618 18.7405 37.5206 19.9251 37.8007 21.0471C38.0809 22.1691 38.7226 23.1646 39.6245 23.8761C40.5263 24.5875 41.6367 24.9744 42.7801 24.9754C43.4653 24.9774 44.1438 24.8389 44.7747 24.5683C46.7861 23.7287 49.044 23.7287 51.0553 24.5683C52.2736 25.1046 53.6497 25.1427 54.8951 24.6746C56.1406 24.2065 57.1586 23.2685 57.7358 22.0574C58.313 20.8462 58.4045 19.456 57.9912 18.178C57.5779 16.9001 56.6918 15.8337 55.5187 15.2025V15.2012ZM53.0615 22.8941C52.644 22.8945 52.2309 22.8091 51.847 22.6431C49.3289 21.5903 46.5012 21.5903 43.983 22.6431C43.2512 22.962 42.4259 22.9819 41.68 22.6987C40.934 22.4155 40.3252 21.8511 39.9812 21.1237C39.6372 20.3963 39.5846 19.5624 39.8344 18.7967C40.0842 18.031 40.6171 17.3928 41.3214 17.0158C42.0787 16.5925 42.7461 16.0223 43.2855 15.3377C43.8249 14.6531 44.2257 13.8677 44.465 13.0262C44.6822 12.2686 45.1367 11.6029 45.7599 11.1292C46.3831 10.6555 47.1414 10.3993 47.9208 10.3993C48.7002 10.3993 49.4585 10.6555 50.0817 11.1292C50.7049 11.6029 51.1594 12.2686 51.3766 13.0262C51.6167 13.8693 52.0187 14.656 52.5597 15.3415C53.1006 16.027 53.7699 16.5977 54.5292 17.021C55.1355 17.3502 55.6158 17.8751 55.8935 18.5124C56.1711 19.1496 56.2303 19.8625 56.0616 20.5378C55.8929 21.213 55.5059 21.8117 54.9623 22.2386C54.4187 22.6656 53.7496 22.8964 53.0615 22.8941Z" fill="#424242"/>
<path d="M5.9769 51.16C5.4009 51.16 4.87823 51.0427 4.4089 50.808C3.95023 50.5627 3.58223 50.2267 3.3049 49.8C3.02757 49.3733 2.8729 48.888 2.8409 48.344V46.056C2.8729 45.5013 3.02757 45.016 3.3049 44.6C3.5929 44.1733 3.96623 43.8427 4.4249 43.608C4.89423 43.3627 5.41157 43.24 5.9769 43.24C6.67023 43.24 7.29423 43.416 7.8489 43.768C8.41423 44.12 8.8569 44.5947 9.1769 45.192C9.4969 45.7893 9.6569 46.4613 9.6569 47.208C9.6569 47.9547 9.4969 48.6267 9.1769 49.224C8.8569 49.8213 8.41423 50.296 7.8489 50.648C7.29423 50.9893 6.67023 51.16 5.9769 51.16ZM5.7369 49.8C6.2169 49.8 6.63823 49.688 7.0009 49.464C7.36357 49.24 7.65157 48.936 7.8649 48.552C8.07823 48.1573 8.1849 47.704 8.1849 47.192C8.1849 46.6907 8.07823 46.2427 7.8649 45.848C7.65157 45.4533 7.36357 45.1493 7.0009 44.936C6.63823 44.712 6.22223 44.6 5.7529 44.6C5.2729 44.6 4.85157 44.712 4.4889 44.936C4.12623 45.1493 3.84357 45.4533 3.6409 45.848C3.43823 46.2427 3.3369 46.696 3.3369 47.208C3.3369 47.7093 3.4329 48.1573 3.6249 48.552C3.82757 48.936 4.11023 49.24 4.4729 49.464C4.84623 49.688 5.26757 49.8 5.7369 49.8ZM1.9769 54.184V43.4H3.4169V45.4L3.1449 47.24L3.4169 49.096V54.184H1.9769ZM15.2894 51.16C14.5321 51.16 13.8494 50.9893 13.2414 50.648C12.6334 50.296 12.1534 49.8213 11.8014 49.224C11.4494 48.6267 11.2734 47.9493 11.2734 47.192C11.2734 46.4453 11.4441 45.7733 11.7854 45.176C12.1374 44.5787 12.6067 44.1093 13.1934 43.768C13.7907 43.416 14.4574 43.24 15.1934 43.24C15.8974 43.24 16.5161 43.4 17.0494 43.72C17.5934 44.04 18.0147 44.4827 18.3134 45.048C18.6227 45.6133 18.7774 46.2533 18.7774 46.968C18.7774 47.0747 18.7721 47.192 18.7614 47.32C18.7507 47.4373 18.7294 47.576 18.6974 47.736H12.2814V46.536H17.9294L17.4014 47C17.4014 46.488 17.3107 46.056 17.1294 45.704C16.9481 45.3413 16.6921 45.064 16.3614 44.872C16.0307 44.6693 15.6307 44.568 15.1614 44.568C14.6707 44.568 14.2387 44.6747 13.8654 44.888C13.4921 45.1013 13.2041 45.4 13.0014 45.784C12.7987 46.168 12.6974 46.6213 12.6974 47.144C12.6974 47.6773 12.8041 48.1467 13.0174 48.552C13.2307 48.9467 13.5347 49.256 13.9294 49.48C14.3241 49.6933 14.7774 49.8 15.2894 49.8C15.7161 49.8 16.1054 49.7253 16.4574 49.576C16.8201 49.4267 17.1294 49.2027 17.3854 48.904L18.3134 49.848C17.9507 50.2747 17.5027 50.6 16.9694 50.824C16.4467 51.048 15.8867 51.16 15.2894 51.16ZM21.7611 51V40.216H23.2011V51H21.7611ZM19.8891 44.712V43.4H25.0731V44.712H19.8891ZM29.2235 51.16C28.7969 51.16 28.3915 51.1067 28.0075 51C27.6342 50.8827 27.2875 50.7227 26.9675 50.52C26.6475 50.3067 26.3702 50.056 26.1355 49.768L27.0635 48.84C27.3409 49.1813 27.6609 49.4373 28.0235 49.608C28.3862 49.768 28.7915 49.848 29.2395 49.848C29.6875 49.848 30.0342 49.7733 30.2795 49.624C30.5249 49.464 30.6475 49.2453 30.6475 48.968C30.6475 48.6907 30.5462 48.4773 30.3435 48.328C30.1515 48.168 29.9009 48.04 29.5915 47.944C29.2822 47.8373 28.9515 47.736 28.5995 47.64C28.2582 47.5333 27.9329 47.4 27.6235 47.24C27.3142 47.08 27.0582 46.8613 26.8555 46.584C26.6635 46.3067 26.5675 45.9387 26.5675 45.48C26.5675 45.0213 26.6795 44.6267 26.9035 44.296C27.1275 43.9547 27.4369 43.6933 27.8315 43.512C28.2369 43.3307 28.7222 43.24 29.2875 43.24C29.8849 43.24 30.4129 43.3467 30.8715 43.56C31.3409 43.7627 31.7249 44.072 32.0235 44.488L31.0955 45.416C30.8822 45.1387 30.6155 44.9253 30.2955 44.776C29.9862 44.6267 29.6342 44.552 29.2395 44.552C28.8235 44.552 28.5035 44.6267 28.2795 44.776C28.0662 44.9147 27.9595 45.112 27.9595 45.368C27.9595 45.624 28.0555 45.8213 28.2475 45.96C28.4395 46.0987 28.6902 46.216 28.9995 46.312C29.3195 46.408 29.6502 46.5093 29.9915 46.616C30.3329 46.712 30.6582 46.8453 30.9675 47.016C31.2769 47.1867 31.5275 47.416 31.7195 47.704C31.9222 47.992 32.0235 48.3707 32.0235 48.84C32.0235 49.5547 31.7675 50.12 31.2555 50.536C30.7542 50.952 30.0769 51.16 29.2235 51.16ZM41.1558 51.16C40.4624 51.16 39.8331 50.9893 39.2678 50.648C38.7024 50.296 38.2544 49.8213 37.9238 49.224C37.6038 48.6267 37.4438 47.9547 37.4438 47.208C37.4438 46.4613 37.6038 45.7893 37.9238 45.192C38.2544 44.5947 38.6971 44.12 39.2518 43.768C39.8171 43.416 40.4518 43.24 41.1558 43.24C41.7318 43.24 42.2438 43.3627 42.6918 43.608C43.1504 43.8427 43.5184 44.1733 43.7958 44.6C44.0731 45.016 44.2278 45.5013 44.2598 46.056V48.344C44.2278 48.888 44.0731 49.3733 43.7958 49.8C43.5291 50.2267 43.1664 50.5627 42.7078 50.808C42.2598 51.0427 41.7424 51.16 41.1558 51.16ZM41.3958 49.8C42.1104 49.8 42.6864 49.56 43.1238 49.08C43.5611 48.5893 43.7798 47.9653 43.7798 47.208C43.7798 46.6853 43.6784 46.232 43.4758 45.848C43.2838 45.4533 43.0064 45.1493 42.6438 44.936C42.2811 44.712 41.8598 44.6 41.3798 44.6C40.8998 44.6 40.4731 44.712 40.0998 44.936C39.7371 45.16 39.4491 45.4693 39.2358 45.864C39.0331 46.248 38.9318 46.6907 38.9318 47.192C38.9318 47.704 39.0331 48.1573 39.2358 48.552C39.4491 48.936 39.7424 49.24 40.1158 49.464C40.4891 49.688 40.9158 49.8 41.3958 49.8ZM43.6838 51V48.952L43.9558 47.096L43.6838 45.256V43.4H45.1398V51H43.6838ZM47.7163 51V39.576H49.1563V51H47.7163ZM51.7431 51V39.576H53.1831V51H51.7431ZM59.242 51.16C58.4954 51.16 57.8234 50.984 57.226 50.632C56.6287 50.28 56.154 49.8053 55.802 49.208C55.45 48.6 55.274 47.9227 55.274 47.176C55.274 46.44 55.45 45.7787 55.802 45.192C56.154 44.5947 56.6287 44.12 57.226 43.768C57.8234 43.416 58.4954 43.24 59.242 43.24C59.978 43.24 60.6447 43.416 61.242 43.768C61.85 44.1093 62.33 44.5787 62.682 45.176C63.034 45.7733 63.21 46.44 63.21 47.176C63.21 47.9227 63.034 48.6 62.682 49.208C62.33 49.8053 61.85 50.28 61.242 50.632C60.6447 50.984 59.978 51.16 59.242 51.16ZM59.242 49.768C59.722 49.768 60.1487 49.656 60.522 49.432C60.8954 49.208 61.1887 48.904 61.402 48.52C61.6154 48.1253 61.722 47.6773 61.722 47.176C61.722 46.6853 61.61 46.248 61.386 45.864C61.1727 45.48 60.8794 45.1813 60.506 44.968C60.1434 44.744 59.722 44.632 59.242 44.632C58.762 44.632 58.3354 44.744 57.962 44.968C57.5887 45.1813 57.2954 45.48 57.082 45.864C56.8687 46.248 56.762 46.6853 56.762 47.176C56.762 47.6773 56.8687 48.1253 57.082 48.52C57.2954 48.904 57.5887 49.208 57.962 49.432C58.3354 49.656 58.762 49.768 59.242 49.768ZM67.2698 51L64.2618 43.4H65.7658L67.9418 49.32H67.4618L69.6218 43.4H70.4538L72.6138 49.32H72.1338L74.3098 43.4H75.8138L72.8218 51H71.9738L69.7818 45.256H70.3098L68.1018 51H67.2698ZM80.875 51.16C80.1177 51.16 79.435 50.9893 78.827 50.648C78.219 50.296 77.739 49.8213 77.387 49.224C77.035 48.6267 76.859 47.9493 76.859 47.192C76.859 46.4453 77.0297 45.7733 77.371 45.176C77.723 44.5787 78.1924 44.1093 78.779 43.768C79.3764 43.416 80.043 43.24 80.779 43.24C81.483 43.24 82.1017 43.4 82.635 43.72C83.179 44.04 83.6004 44.4827 83.899 45.048C84.2084 45.6133 84.363 46.2533 84.363 46.968C84.363 47.0747 84.3577 47.192 84.347 47.32C84.3364 47.4373 84.315 47.576 84.283 47.736H77.867V46.536H83.515L82.987 47C82.987 46.488 82.8964 46.056 82.715 45.704C82.5337 45.3413 82.2777 45.064 81.947 44.872C81.6164 44.6693 81.2164 44.568 80.747 44.568C80.2564 44.568 79.8244 44.6747 79.451 44.888C79.0777 45.1013 78.7897 45.4 78.587 45.784C78.3844 46.168 78.283 46.6213 78.283 47.144C78.283 47.6773 78.3897 48.1467 78.603 48.552C78.8164 48.9467 79.1204 49.256 79.515 49.48C79.9097 49.6933 80.363 49.8 80.875 49.8C81.3017 49.8 81.691 49.7253 82.043 49.576C82.4057 49.4267 82.715 49.2027 82.971 48.904L83.899 49.848C83.5364 50.2747 83.0884 50.6 82.555 50.824C82.0324 51.048 81.4724 51.16 80.875 51.16ZM89.6291 51.16C88.9251 51.16 88.2958 50.9893 87.7411 50.648C87.1865 50.296 86.7438 49.8213 86.4131 49.224C86.0931 48.6267 85.9331 47.9547 85.9331 47.208C85.9331 46.4613 86.0931 45.7893 86.4131 45.192C86.7438 44.5947 87.1865 44.12 87.7411 43.768C88.2958 43.416 88.9251 43.24 89.6291 43.24C90.1945 43.24 90.7065 43.3627 91.1651 43.608C91.6238 43.8427 91.9918 44.1733 92.2691 44.6C92.5571 45.016 92.7171 45.5013 92.7491 46.056V48.344C92.7171 48.888 92.5625 49.3733 92.2851 49.8C92.0078 50.2267 91.6398 50.5627 91.1811 50.808C90.7225 51.0427 90.2051 51.16 89.6291 51.16ZM89.8691 49.8C90.3491 49.8 90.7651 49.688 91.1171 49.464C91.4798 49.24 91.7625 48.936 91.9651 48.552C92.1678 48.1573 92.2691 47.7093 92.2691 47.208C92.2691 46.6853 92.1625 46.232 91.9491 45.848C91.7465 45.464 91.4638 45.16 91.1011 44.936C90.7491 44.712 90.3331 44.6 89.8531 44.6C89.3731 44.6 88.9518 44.712 88.5891 44.936C88.2265 45.16 87.9385 45.4693 87.7251 45.864C87.5225 46.248 87.4211 46.6907 87.4211 47.192C87.4211 47.704 87.5225 48.1573 87.7251 48.552C87.9385 48.936 88.2265 49.24 88.5891 49.464C88.9625 49.688 89.3891 49.8 89.8691 49.8ZM93.6291 51H92.1731V48.952L92.4451 47.096L92.1731 45.256V39.576H93.6291V51Z" fill="#424242"/>
</svg>
