<svg width="840" height="451" viewBox="0 0 840 451" fill="none" xmlns="http://www.w3.org/2000/svg">
<rect y="0.164185" width="839.628" height="450" rx="2" fill="#F5F5F5"/>
<path d="M506.791 140.164H332.837C329.167 140.164 325.648 141.622 323.053 144.217C320.458 146.812 319 150.331 319 154.001V296.327C319 299.997 320.458 303.516 323.053 306.111C325.648 308.706 329.167 310.164 332.837 310.164H506.791C510.461 310.164 513.98 308.706 516.575 306.111C519.17 303.516 520.628 299.997 520.628 296.327V154.001C520.628 150.331 519.17 146.812 516.575 144.217C513.98 141.622 510.461 140.164 506.791 140.164ZM332.837 152.025H506.791C507.315 152.025 507.818 152.233 508.188 152.604C508.559 152.974 508.767 153.477 508.767 154.001V260.32L479.64 231.193C478.355 229.908 476.83 228.889 475.151 228.193C473.472 227.498 471.672 227.14 469.855 227.14C468.038 227.14 466.239 227.498 464.56 228.193C462.881 228.889 461.355 229.908 460.07 231.193L438.899 252.364L394.017 207.472C392.733 206.187 391.207 205.168 389.528 204.472C387.849 203.777 386.05 203.419 384.233 203.419C382.415 203.419 380.616 203.777 378.937 204.472C377.258 205.168 375.733 206.187 374.448 207.472L330.86 251.059V154.001C330.86 153.477 331.069 152.974 331.439 152.604C331.81 152.233 332.313 152.025 332.837 152.025ZM330.86 296.327V267.832L382.829 215.863C383.013 215.678 383.231 215.531 383.472 215.431C383.713 215.33 383.972 215.279 384.233 215.279C384.494 215.279 384.752 215.33 384.993 215.431C385.234 215.531 385.452 215.678 385.636 215.863L468.076 298.304H332.837C332.313 298.304 331.81 298.095 331.439 297.725C331.069 297.354 330.86 296.851 330.86 296.327ZM506.791 298.304H484.849L447.291 260.745L468.452 239.575C468.635 239.391 468.853 239.245 469.093 239.145C469.333 239.046 469.591 238.995 469.85 238.995C470.11 238.995 470.367 239.046 470.607 239.145C470.847 239.245 471.065 239.391 471.249 239.575L508.807 277.133V296.327C508.807 296.59 508.755 296.85 508.653 297.093C508.551 297.335 508.402 297.555 508.214 297.739C508.026 297.923 507.804 298.068 507.559 298.165C507.315 298.262 507.054 298.309 506.791 298.304ZM437.605 197.49C437.605 195.535 438.184 193.624 439.27 191.999C440.356 190.373 441.9 189.106 443.706 188.358C445.512 187.61 447.499 187.414 449.417 187.796C451.334 188.177 453.095 189.119 454.477 190.501C455.859 191.883 456.801 193.644 457.182 195.561C457.564 197.479 457.368 199.466 456.62 201.272C455.872 203.078 454.605 204.622 452.979 205.708C451.354 206.794 449.443 207.373 447.488 207.373C444.867 207.373 442.353 206.332 440.5 204.478C438.646 202.625 437.605 200.111 437.605 197.49Z" fill="#D3D3D3"/>
</svg>
