<svg width="451" height="451" viewBox="0 0 451 451" fill="none" xmlns="http://www.w3.org/2000/svg">
<rect x="0.813965" y="0.164062" width="450" height="450" rx="2" fill="#F5F5F5"/>
<path d="M313.204 299.82C300.272 277.463 280.344 261.432 257.087 253.832C268.591 246.984 277.529 236.548 282.528 224.128C287.527 211.709 288.311 197.991 284.76 185.083C281.208 172.174 273.518 160.788 262.869 152.674C252.22 144.559 239.202 140.164 225.814 140.164C212.426 140.164 199.408 144.559 188.759 152.674C178.11 160.788 170.42 172.174 166.868 185.083C163.317 197.991 164.101 211.709 169.1 224.128C174.099 236.548 183.037 246.984 194.541 253.832C171.284 261.423 151.355 277.454 138.424 299.82C137.949 300.593 137.635 301.454 137.498 302.35C137.362 303.247 137.407 304.162 137.63 305.041C137.853 305.921 138.25 306.746 138.797 307.47C139.344 308.193 140.031 308.8 140.817 309.253C141.602 309.707 142.47 309.999 143.371 310.111C144.271 310.224 145.184 310.155 146.057 309.909C146.93 309.663 147.745 309.245 148.454 308.678C149.163 308.112 149.751 307.41 150.184 306.613C166.181 278.966 194.456 262.459 225.814 262.459C257.172 262.459 285.447 278.966 301.444 306.613C301.877 307.41 302.465 308.112 303.174 308.678C303.883 309.245 304.698 309.663 305.571 309.909C306.444 310.155 307.357 310.224 308.257 310.111C309.157 309.999 310.026 309.707 310.811 309.253C311.597 308.8 312.283 308.193 312.831 307.47C313.378 306.746 313.775 305.921 313.998 305.041C314.221 304.162 314.266 303.247 314.129 302.35C313.993 301.454 313.679 300.593 313.204 299.82ZM178.264 201.323C178.264 191.919 181.053 182.725 186.277 174.906C191.502 167.086 198.929 160.991 207.617 157.392C216.306 153.794 225.867 152.852 235.091 154.687C244.314 156.521 252.787 161.05 259.437 167.7C266.087 174.35 270.616 182.823 272.45 192.047C274.285 201.27 273.344 210.831 269.745 219.52C266.146 228.208 260.051 235.635 252.231 240.86C244.412 246.084 235.218 248.873 225.814 248.873C213.207 248.86 201.12 243.846 192.206 234.931C183.291 226.017 178.277 213.93 178.264 201.323Z" fill="#D3D3D3"/>
</svg>
