<svg width="19" height="19" viewBox="0 0 19 19" fill="none" xmlns="http://www.w3.org/2000/svg">
<path d="M4.53382 5.81491C2.44281 6.28836 1.39731 6.52466 1.14826 7.32451C0.900059 8.12351 1.61236 8.95737 3.03782 10.6242L3.40672 11.0552C3.81132 11.5286 4.01447 11.7658 4.10542 12.0582C4.19637 12.3514 4.16577 12.6676 4.10457 13.2992L4.04847 13.8746C3.83342 16.0991 3.72547 17.2109 4.37657 17.7047C5.02767 18.1994 6.00687 17.7481 7.96358 16.8471L8.47103 16.6142C9.02693 16.3575 9.30488 16.23 9.59983 16.23C9.89479 16.23 10.1727 16.3575 10.7295 16.6142L11.2352 16.8471C13.1928 17.7481 14.172 18.1986 14.8222 17.7056C15.4742 17.2109 15.3663 16.0991 15.1512 13.8746M16.1619 10.6242C17.5873 8.95822 18.2996 8.12436 18.0514 7.32451C17.8024 6.52466 16.7569 6.28751 14.6658 5.81491L14.1252 5.69251C13.5311 5.55821 13.2344 5.49106 12.9956 5.31C12.7576 5.12895 12.6046 4.8544 12.2986 4.3053L12.0198 3.8055C10.9428 1.87429 10.4048 0.908691 9.59983 0.908691C8.79488 0.908691 8.25683 1.87429 7.17988 3.8055" stroke="#424242" stroke-width="1.5" stroke-linecap="round"/>
</svg>
