<svg width="24" height="18" viewBox="0 0 24 18" fill="none" xmlns="http://www.w3.org/2000/svg">
<path d="M22.7298 12.4998H18.8229C18.8514 12.2432 18.8659 11.9852 18.8663 11.7271C18.8663 9.88265 18.1336 8.11378 16.8294 6.80959C15.5253 5.5054 13.7564 4.77271 11.912 4.77271C10.0676 4.77271 8.29871 5.5054 6.99452 6.80959C5.69033 8.11378 4.95764 9.88265 4.95764 11.7271C4.95807 11.9852 4.97258 12.2432 5.0011 12.4998H1.09412C0.889182 12.4998 0.692641 12.5812 0.547731 12.7261C0.402821 12.871 0.321411 13.0675 0.321411 13.2725C0.321411 13.4774 0.402821 13.6739 0.547731 13.8188C0.692641 13.9638 0.889182 14.0452 1.09412 14.0452H22.7298C22.9348 14.0452 23.1313 13.9638 23.2762 13.8188C23.4211 13.6739 23.5026 13.4774 23.5026 13.2725C23.5026 13.0675 23.4211 12.871 23.2762 12.7261C23.1313 12.5812 22.9348 12.4998 22.7298 12.4998ZM6.50305 11.7271C6.50163 10.9832 6.65364 10.2471 6.94958 9.56471C7.24552 8.88229 7.67903 8.26825 8.22302 7.76096C8.767 7.25367 9.40977 6.86402 10.1112 6.61638C10.8125 6.36874 11.5575 6.26842 12.2994 6.32169C13.0413 6.37497 13.7642 6.58069 14.423 6.926C15.0818 7.27132 15.6623 7.7488 16.1283 8.32861C16.5942 8.90842 16.9355 9.5781 17.1309 10.2958C17.3263 11.0135 17.3716 11.7638 17.2639 12.4998H6.56004C6.52264 12.2439 6.50359 11.9857 6.50305 11.7271ZM20.4117 17.136C20.4117 17.3409 20.3303 17.5375 20.1854 17.6824C20.0405 17.8273 19.844 17.9087 19.639 17.9087H4.18494C3.98 17.9087 3.78346 17.8273 3.63855 17.6824C3.49364 17.5375 3.41223 17.3409 3.41223 17.136C3.41223 16.9311 3.49364 16.7345 3.63855 16.5896C3.78346 16.4447 3.98 16.3633 4.18494 16.3633H19.639C19.844 16.3633 20.0405 16.4447 20.1854 16.5896C20.3303 16.7345 20.4117 16.9311 20.4117 17.136ZM6.58418 2.02768C6.49248 1.84426 6.47738 1.63193 6.54223 1.43738C6.60708 1.24284 6.74655 1.08203 6.92997 0.990321C7.11338 0.898613 7.32572 0.883523 7.52026 0.94837C7.7148 1.01322 7.87562 1.15269 7.96733 1.33611L8.74003 2.88152C8.78544 2.97233 8.81252 3.07121 8.81971 3.17249C8.82691 3.27377 8.81409 3.37548 8.78198 3.47181C8.74987 3.56814 8.6991 3.6572 8.63258 3.7339C8.56605 3.81061 8.48506 3.87346 8.39424 3.91887C8.30343 3.96428 8.20455 3.99136 8.10327 3.99856C8.00199 4.00575 7.90028 3.99293 7.80395 3.96082C7.70762 3.92871 7.61856 3.87795 7.54186 3.81142C7.46515 3.74489 7.4023 3.66391 7.35689 3.57309L6.58418 2.02768ZM1.17525 6.74504C1.22069 6.65426 1.28358 6.57332 1.36032 6.50686C1.43706 6.44039 1.52614 6.3897 1.62248 6.35768C1.71881 6.32565 1.82052 6.31293 1.92177 6.32023C2.02303 6.32753 2.12186 6.35471 2.21261 6.40022L3.75802 7.17292C3.9413 7.26463 4.08065 7.4254 4.14541 7.61985C4.21017 7.8143 4.19503 8.02651 4.10332 8.2098C4.01161 8.39309 3.85085 8.53244 3.6564 8.59719C3.46194 8.66195 3.24973 8.64681 3.06644 8.5551L1.52104 7.7824C1.43017 7.73704 1.34914 7.67421 1.28258 7.59751C1.21601 7.52081 1.16522 7.43174 1.1331 7.3354C1.10099 7.23905 1.08818 7.13732 1.09541 7.03602C1.10264 6.93472 1.12977 6.83585 1.17525 6.74504ZM19.7202 8.20932C19.6286 8.02602 19.6136 7.81387 19.6785 7.61953C19.7433 7.42518 19.8827 7.26454 20.0659 7.17292L21.6114 6.40022C21.7021 6.35481 21.8009 6.32772 21.9021 6.3205C22.0034 6.31328 22.105 6.32606 22.2013 6.35813C22.2976 6.39019 22.3866 6.44091 22.4633 6.50738C22.54 6.57385 22.6028 6.65477 22.6482 6.74552C22.6936 6.83628 22.7207 6.93509 22.728 7.03631C22.7352 7.13754 22.7224 7.23919 22.6903 7.33547C22.6583 7.43176 22.6075 7.52078 22.5411 7.59746C22.4746 7.67415 22.3937 7.73699 22.3029 7.7824L20.7575 8.5551C20.6667 8.60058 20.5678 8.62771 20.4665 8.63494C20.3652 8.64217 20.2635 8.62936 20.1672 8.59725C20.0708 8.56513 19.9818 8.51434 19.9051 8.44777C19.8284 8.38121 19.7655 8.30018 19.7202 8.20932ZM15.0839 2.88152L15.8566 1.33611C15.9483 1.15269 16.1092 1.01322 16.3037 0.94837C16.4982 0.883523 16.7106 0.898613 16.894 0.990321C17.0774 1.08203 17.2169 1.24284 17.2817 1.43738C17.3466 1.63193 17.3315 1.84426 17.2398 2.02768L16.4671 3.57309C16.3754 3.7565 16.2146 3.89598 16.02 3.96082C15.8255 4.02567 15.6131 4.01058 15.4297 3.91887C15.2463 3.82716 15.1068 3.66635 15.042 3.47181C14.9771 3.27727 14.9922 3.06493 15.0839 2.88152Z" fill="#424242"/>
</svg>
