<svg width="21" height="16" viewBox="0 0 21 16" fill="none" xmlns="http://www.w3.org/2000/svg">
<path d="M12.0079 14.6157C12.0079 14.8714 11.9321 15.1214 11.79 15.334C11.6479 15.5467 11.446 15.7124 11.2097 15.8103C10.9735 15.9081 10.7135 15.9337 10.4627 15.8838C10.2119 15.834 9.98147 15.7108 9.80064 15.53C9.61981 15.3492 9.49667 15.1188 9.44678 14.8679C9.39689 14.6171 9.42249 14.3572 9.52036 14.1209C9.61822 13.8846 9.78395 13.6827 9.99658 13.5406C10.2092 13.3985 10.4592 13.3227 10.7149 13.3227C11.0579 13.3227 11.3867 13.4589 11.6292 13.7014C11.8717 13.9439 12.0079 14.2728 12.0079 14.6157ZM20.5068 4.3157C17.7199 2.10923 14.2695 0.908691 10.7149 0.908691C7.16034 0.908691 3.70994 2.10923 0.923079 4.3157C0.761733 4.44361 0.657808 4.63038 0.634166 4.83491C0.610524 5.03945 0.669102 5.245 0.797012 5.40634C0.924923 5.56769 1.11169 5.67161 1.31622 5.69525C1.52076 5.7189 1.72631 5.66032 1.88765 5.53241C4.40016 3.54369 7.5106 2.46166 10.7149 2.46166C13.9193 2.46166 17.0297 3.54369 19.5422 5.53241C19.6802 5.63895 19.8501 5.69589 20.0245 5.69403C20.1855 5.69404 20.3425 5.64395 20.4738 5.5507C20.6051 5.45744 20.7041 5.32566 20.7571 5.17361C20.8101 5.02156 20.8145 4.85678 20.7696 4.70213C20.7248 4.54748 20.6329 4.41062 20.5068 4.31053V4.3157ZM16.3433 8.94591C14.7078 7.75622 12.7374 7.11537 10.7149 7.11537C8.69248 7.11537 6.72204 7.75622 5.08652 8.94591C4.9251 9.06879 4.81823 9.25001 4.78882 9.45074C4.75941 9.65146 4.80979 9.85572 4.92917 10.0197C5.04855 10.1838 5.22744 10.2945 5.42748 10.3282C5.62753 10.3619 5.83283 10.316 5.99938 10.2001C7.36965 9.20342 9.0205 8.66652 10.7149 8.66652C12.4094 8.66652 14.0602 9.20342 15.4305 10.2001C15.5968 10.3211 15.8044 10.3711 16.0076 10.3391C16.2108 10.3071 16.3929 10.1957 16.514 10.0294C16.635 9.86311 16.685 9.65553 16.653 9.45234C16.621 9.24916 16.5096 9.067 16.3433 8.94591Z" fill="#424242"/>
</svg>
