<svg width="34" height="55" viewBox="0 0 34 55" fill="none" xmlns="http://www.w3.org/2000/svg">
<path d="M19.3462 22.845C19.3462 23.2712 19.2198 23.6879 18.983 24.0423C18.7462 24.3966 18.4096 24.6729 18.0159 24.836C17.6221 24.9991 17.1888 25.0417 16.7708 24.9586C16.3527 24.8754 15.9688 24.6702 15.6674 24.3688C15.366 24.0674 15.1607 23.6835 15.0776 23.2654C14.9944 22.8474 15.0371 22.4141 15.2002 22.0203C15.3633 21.6266 15.6395 21.29 15.9939 21.0532C16.3483 20.8164 16.765 20.69 17.1912 20.69C17.7627 20.69 18.3109 20.9171 18.715 21.3212C19.1191 21.7253 19.3462 22.2735 19.3462 22.845ZM33.5109 5.67835C28.8662 2.00091 23.1155 0 17.1912 0C11.2669 0 5.5162 2.00091 0.871432 5.67835C0.602523 5.89153 0.429314 6.20281 0.38991 6.5437C0.350507 6.88459 0.448136 7.22717 0.661321 7.49608C0.874505 7.76499 1.18578 7.9382 1.52667 7.97761C1.86756 8.01701 2.21015 7.91938 2.47906 7.7062C6.66657 4.39166 11.8506 2.58827 17.1912 2.58827C22.5317 2.58827 27.7158 4.39166 31.9033 7.7062C32.1334 7.88377 32.4165 7.97866 32.7071 7.97557C32.9755 7.97559 33.2372 7.8921 33.456 7.73668C33.6748 7.58125 33.8398 7.36161 33.9281 7.10819C34.0165 6.85478 34.0238 6.58015 33.949 6.3224C33.8743 6.06465 33.7211 5.83655 33.5109 5.66973V5.67835ZM26.5719 13.3954C23.846 11.4126 20.5619 10.3445 17.1912 10.3445C13.8204 10.3445 10.5364 11.4126 7.8105 13.3954C7.54147 13.6002 7.36335 13.9022 7.31433 14.2367C7.26531 14.5713 7.34928 14.9117 7.54825 15.1851C7.74722 15.4585 8.04536 15.643 8.37877 15.6992C8.71218 15.7554 9.05434 15.6788 9.33193 15.4857C11.6157 13.8245 14.3671 12.9297 17.1912 12.9297C20.0152 12.9297 22.7666 13.8245 25.0504 15.4857C25.3277 15.6874 25.6736 15.7707 26.0123 15.7174C26.3509 15.664 26.6545 15.4784 26.8563 15.2013C27.058 14.924 27.1413 14.5781 27.088 14.2394C27.0346 13.9008 26.849 13.5972 26.5719 13.3954Z" fill="#424242"/>
<path d="M7.42292 51L4.41492 43.4H5.91892L8.09492 49.32H7.61492L9.77492 43.4H10.6069L12.7669 49.32H12.2869L14.4629 43.4H15.9669L12.9749 51H12.1269L9.93492 45.256H10.4629L8.25492 51H7.42292ZM17.6179 51V43.4H19.0579V51H17.6179ZM18.3379 41.88C18.0713 41.88 17.8526 41.7947 17.6819 41.624C17.5113 41.4427 17.4259 41.2187 17.4259 40.952C17.4259 40.696 17.5113 40.4827 17.6819 40.312C17.8526 40.1307 18.0713 40.04 18.3379 40.04C18.6046 40.04 18.8233 40.1307 18.9939 40.312C19.1646 40.4827 19.2499 40.696 19.2499 40.952C19.2499 41.2187 19.1646 41.4427 18.9939 41.624C18.8233 41.7947 18.6046 41.88 18.3379 41.88ZM22.748 51V42.024C22.748 41.5227 22.8547 41.08 23.068 40.696C23.292 40.3013 23.6014 39.992 23.996 39.768C24.3907 39.5333 24.844 39.416 25.356 39.416C25.7507 39.416 26.0974 39.4853 26.396 39.624C26.6947 39.752 26.972 39.9333 27.228 40.168L26.284 41.112C26.1454 40.9947 26.0014 40.9093 25.852 40.856C25.7027 40.792 25.5374 40.76 25.356 40.76C24.9827 40.76 24.6947 40.8773 24.492 41.112C24.2894 41.336 24.188 41.64 24.188 42.024V51H22.748ZM20.876 44.712V43.4H28.092V44.712H20.876ZM27.26 51V43.4H28.716V51H27.26ZM27.98 42.6C27.724 42.6 27.5107 42.5147 27.34 42.344C27.1694 42.1627 27.084 41.9387 27.084 41.672C27.084 41.416 27.1694 41.2027 27.34 41.032C27.5107 40.8507 27.724 40.76 27.98 40.76C28.2574 40.76 28.476 40.8507 28.636 41.032C28.8067 41.2027 28.892 41.416 28.892 41.672C28.892 41.9387 28.8067 42.1627 28.636 42.344C28.476 42.5147 28.2574 42.6 27.98 42.6Z" fill="#424242"/>
</svg>
